<svg width="128" height="80" viewBox="0 0 128 80" fill="none" xmlns="http://www.w3.org/2000/svg">
<path fill-rule="evenodd" clip-rule="evenodd" d="M33.0358 78.9307C36.2595 78.9307 39.4487 78.5894 42.5575 77.9239C41.4542 74.3747 40.3566 67.2535 41.8564 65.9566C41.9024 69.3011 42.9942 74.2382 44.4595 77.4746C49.3669 76.1948 54.0445 74.0846 58.291 71.1952C59.3541 70.4728 59.8368 68.0213 58.2163 67.0942C42.8793 58.3292 23.1866 58.3861 7.84379 67.0942C7.61968 67.2193 7.22318 67.4184 6.85542 67.6914L6.84392 67.6801C3.94202 69.4092 1.2125 71.8151 -0.0114746 73.5898C0.896449 75.0174 4.31553 77.7874 5.8613 78.6861C6.33824 76.957 6.94161 74.3007 8.24603 71.5137C15.5956 76.3711 24.1692 78.9307 33.03 78.9307H33.0358ZM48.844 69.7903C49.66 69.7903 50.3266 69.1077 50.3266 68.2716C50.3266 67.4355 49.66 66.7529 48.844 66.7529C48.028 66.7529 47.3615 67.4355 47.3615 68.2716C47.3615 69.1077 48.0223 69.7903 48.844 69.7903Z" fill="#E13C31"/>
<path fill-rule="evenodd" clip-rule="evenodd" d="M42.0231 75.9104C41.6208 74.1643 41.2818 72.0768 41.1669 70.2794C41.0922 69.0622 41.0692 66.8781 41.8564 65.951C42.7529 69.6481 43.9596 71.8095 45.4307 75.0402C50.3381 73.7604 54.0445 71.9119 58.2968 69.0224C58.6186 68.8063 58.8829 68.4309 59.0553 67.9872C58.8886 67.6232 58.6186 67.3104 58.2221 67.0828C42.885 58.3178 23.1923 58.3747 7.84953 67.0828C5.33838 68.5105 2.85021 70.2794 0.919434 72.4295C2.16065 73.8514 3.79836 75.4042 4.73501 76.0924C5.52801 74.3463 6.35548 71.8379 8.03342 69.1987C15.429 74.1529 24.0887 76.7636 33.0358 76.7636C36.0756 76.7636 39.0867 76.4963 42.0173 75.9047L42.0231 75.9104ZM48.8498 69.7903C49.6657 69.7903 50.3323 69.1077 50.3323 68.2716C50.3323 67.4355 49.6657 66.753 48.8498 66.753C48.0338 66.753 47.3672 67.4355 47.3672 68.2716C47.3672 69.1077 48.028 69.7903 48.8498 69.7903Z" fill="#EE5446"/>
<path fill-rule="evenodd" clip-rule="evenodd" d="M33.0358 54.6548C45.626 54.6548 55.3661 57.8343 59.5207 58.6705L56.6993 15.7554C56.4522 11.8933 56.0212 10.9435 53.5905 9.77177C51.8666 8.94134 50.1599 8.15072 47.8269 7.00746L43.7757 9.88552L41.6955 3.93032C38.6327 2.44578 35.8975 0.92143 33.823 0.136503C33.3346 -0.0511975 32.737 -0.0511975 32.2485 0.136503C30.1741 0.927118 27.4388 2.45147 24.376 3.93032L22.2959 9.88552L18.2447 7.00746C15.9117 8.14503 14.1992 8.93565 12.4811 9.77177C10.0504 10.9435 9.62515 11.8933 9.37231 15.7554L6.5451 58.7273C10.1021 58.6818 20.4398 54.6548 33.03 54.6548H33.0358ZM33.3059 43.3416L33.0588 43.7967L32.7715 43.3416L32.0302 25.3452L32.7715 7.42267L33.0186 6.96764L33.3059 7.42267L34.0471 25.3452L33.3059 43.3473V43.3416Z" fill="#FDFDFC"/>
<path fill-rule="evenodd" clip-rule="evenodd" d="M59.5207 58.6704L56.6992 15.7554C56.4522 11.8933 56.0212 10.9435 53.5905 9.77176C51.8666 8.94133 50.1599 8.15071 47.8269 7.00745L47.6832 7.10983L48.0337 54.8482C34.2827 51.7085 19.2675 53.0224 6.55658 58.7273L10.1883 60.8091C24.5312 54.8425 41.5289 54.797 55.8775 60.7636L59.5265 58.6704H59.5207Z" fill="#E2E4E4"/>
<path d="M106.273 57.2201L106.876 56.1507L106.917 41.7547L105.854 41.0779L105.865 37.1703H112.623L112.588 47.2663L119.995 37.1703H126.874L126.856 42.0676H125.661L125.61 58.4316H119.898L119.944 45.7761L109.87 60.064L106.273 57.2201Z" fill="#FDFDFC"/>
<path d="M71.3467 37.1589H78.5986L78.4549 44.8204L78.3228 51.6345L78.2941 53.1873H82.9601C83.1095 53.1873 85.4712 53.1703 85.9769 53.1873L84.0979 51.2421L84.23 37.1589H90.1028L89.827 53.1816H95.5791L95.7227 44.8204L95.8549 37.1589H100.193L101.728 42.0675L101.446 58.4315H89.735L84.1036 57.3963L83.8623 58.4315H74.2256L72.3121 54.177L72.542 42.0732H71.249L71.341 37.1646L71.3467 37.1589Z" fill="#FDFDFC"/>
<path d="M119.72 1.85992L116.898 11.882H111.841L108.399 1.85992H100.337L106.112 18.6392H114.042L112.818 23.781H107.101L106.75 30.3733H118.151L122.328 18.6392L128 1.85992H119.72Z" fill="#FDFDFC"/>
<path d="M91.5451 23.9232L81.196 23.9915L81.2247 8.38961H90.2637L90.6774 12.4564L98.9407 11.3757L96.1595 1.85992H70.8698L70.8238 8.38961H72.5132L72.4787 28.081L78.8629 31.744L99.3314 30.1059L99.3544 18.1045L91.2463 19.0885L91.5451 23.9232Z" fill="#FDFDFC"/>
<path d="M102.699 73.931V75.5919H98.2799V73.3167H101.578L102.337 70.3135H98.2856V68.3569H105.595V64.5745H102.779L102.613 65.2001H96.2687L94.7631 66.861V77.5258L98.2454 79.0046L105.727 78.3334V73.3736L102.705 73.931H102.699ZM116.053 68.3569L115.64 73.1859H111.973L112.318 68.3569H116.053ZM115.611 73.5499L115.122 79.2719L118.783 79.9943L118.72 76.4109L123.644 76.4963L125.828 75.0743L125.782 65.2058L122.61 64.728L122.472 65.2058H111.025L108.842 67.5378L108.497 73.8457L110.721 76.2915L113.416 76.337L115.605 73.5499H115.611ZM118.662 73.1859L118.576 68.3569H121.622L122.558 67.1283L122.064 73.1859H118.662ZM71.5823 65.2001H76.2656L76.2541 70.1372L76.2426 74.5226V75.5236H79.248C79.3456 75.5236 80.8684 75.5123 81.196 75.5236L79.9605 74.2723L79.8973 65.2058H83.6899V75.5293H87.3963V70.1429L87.402 65.2058H92.0853V68.3683H91.2463V78.9079H83.6784L80.0295 78.2424L79.8858 78.9079H73.6625L72.3811 76.1664L72.4041 68.3683H71.5708L71.5823 65.2058V65.2001Z" fill="#EE5446"/>
</svg>
