<svg width="21" height="18" viewBox="0 0 21 18" fill="none" xmlns="http://www.w3.org/2000/svg">
<path d="M3.3094 3.79409L0.204402 5.69159V2.63259L3.3094 0.769589H6.1384V17.3296H3.3094V3.79409ZM13.6589 14.6961H20.7659V17.3066H9.36936V14.8916L16.4534 8.57809C16.9747 8.11042 17.3504 7.65809 17.5804 7.22109C17.8104 6.78409 17.9254 6.35092 17.9254 5.92159C17.9254 5.37726 17.8065 4.88659 17.5689 4.44959C17.3389 4.00492 17.0092 3.65992 16.5799 3.41459C16.1582 3.16159 15.679 3.03509 15.1424 3.03509C14.5827 3.03509 14.0767 3.16926 13.6244 3.43759C13.1797 3.69826 12.8347 4.04709 12.5894 4.48409C12.344 4.92109 12.229 5.39259 12.2444 5.89859H9.39236C9.39236 4.80992 9.6377 3.85159 10.1284 3.02359C10.619 2.19559 11.3014 1.55542 12.1754 1.10309C13.057 0.650756 14.0652 0.42459 15.1999 0.42459C16.2502 0.42459 17.197 0.662256 18.0404 1.13759C18.8914 1.60526 19.5584 2.26076 20.0414 3.10409C20.5244 3.93976 20.7659 4.89042 20.7659 5.95609C20.7659 6.71509 20.6624 7.36292 20.4554 7.89959C20.2484 8.42859 19.957 8.90392 19.5814 9.32559C19.2057 9.74726 18.646 10.2839 17.9024 10.9356L13.6589 14.6961Z" fill="white"/>
</svg>
