<svg width="228" height="29" viewBox="0 0 228 29" fill="none" xmlns="http://www.w3.org/2000/svg">
<g clip-path="url(#clip0_10_2227)">
<path d="M4.75755 0.0024581L0.00610352 4.75391L9.45483 14.2026L14.2063 9.45118L4.75755 0.0024581Z" fill="white"/>
<path d="M28.4049 23.6498L18.9603 14.1997L14.1997 18.9494L9.45007 14.1997L0 23.6498L4.74966 28.3994L9.45007 23.7045L14.1997 28.4487L18.9603 23.7045L23.6553 28.3994L28.4049 23.6498Z" fill="#EFBD64"/>
<path d="M23.6542 0.00268954L14.2055 9.45142L18.957 14.2029L28.4057 4.75414L23.6542 0.00268954Z" fill="white"/>
<path d="M214.129 21.6469H217.822V17.0012H222.369C229.877 17.0012 229.877 6.79604 222.369 6.80152H214.123V21.6524L214.129 21.6469ZM217.822 13.6305V10.1722H222.025C223.3 10.1722 224.208 10.8617 224.208 11.9014C224.208 12.9411 223.3 13.6305 222.025 13.6305H217.822Z" fill="#EFBD64"/>
<path d="M179.628 21.647L176.038 16.5471C181.368 14.2543 179.606 6.65926 173.554 6.80153H165.308V21.6524H169.001V17.0067H172.164L175.425 21.6524H179.617L179.628 21.647ZM169.007 10.1723H173.209C174.484 10.1723 175.393 10.8617 175.393 11.9014C175.393 12.9411 174.484 13.6305 173.209 13.6305H169.007V10.1723Z" fill="#EFBD64"/>
<path d="M114.265 6.80151H110.572V21.6524H114.265V6.80151Z" fill="white"/>
<path d="M104.367 6.80151V17.3952L97.0342 6.80151H92.0109V21.6524H95.7045V11.5129L102.72 21.6524H108.06V6.80151H104.367Z" fill="white"/>
<path d="M81.565 18.3419V6.80151H77.8933V21.6469H90.0684V18.3419H81.565Z" fill="white"/>
<path d="M42.7743 21.6469H46.4679V13.045L51.4255 20.7824L56.3776 13.045V21.6469H60.0766V6.80151H56.3776L51.4255 14.5389L46.4679 6.80151H42.7743V21.6469Z" fill="white"/>
<path d="M75.5075 10.1066V6.80151H62.4623V21.6469H75.5075V18.3419H66.1559V15.7263H71.8467V12.4212H66.1559V10.1066H75.5075Z" fill="white"/>
<path d="M142.347 21.647H146.041L141.127 6.79614H134.605L129.691 21.647H133.833L134.555 19.2503H141.554L142.347 21.647ZM135.551 15.9453L137.308 10.1067H138.528L140.46 15.9453H135.546H135.551Z" fill="white"/>
<path d="M195.513 14.227C195.513 12.0437 194.561 10.0848 193.062 8.72773C190.358 6.18874 185.817 6.18874 183.114 8.72773C179.874 11.5239 179.874 16.9357 183.114 19.7318C185.817 22.2708 190.358 22.2708 193.062 19.7318C194.561 18.3748 195.513 16.4158 195.513 14.2325V14.227ZM190.654 17.5649C187.978 19.6881 183.83 17.6908 183.874 14.227C183.841 11.7045 186.189 9.69626 188.629 10.0519C192.323 10.5006 193.631 15.3324 190.654 17.5704V17.5649Z" fill="#EFBD64"/>
<path d="M163.453 13.6304H156.646L159.562 16.5469C157.286 20.0052 151.83 18.4129 151.814 14.2268C151.792 10.4785 156.443 8.60164 159.026 11.2446L161.291 8.9792C161.204 8.89165 161.116 8.79316 161.023 8.71108C158.315 6.16662 153.762 6.16662 151.053 8.71108C147.803 11.5401 147.803 16.9135 151.053 19.7425C153.762 22.287 158.315 22.287 161.023 19.7425C162.681 18.2213 163.666 15.9778 163.447 13.6304H163.453Z" fill="#EFBD64"/>
<path d="M212.246 6.80151H209.04V14.227C209.062 16.558 207.092 18.4568 204.826 18.4404C202.561 18.4513 200.591 16.558 200.613 14.227V6.80151H197.406V14.227C197.406 16.4103 198.358 18.3692 199.858 19.7263C202.561 22.2653 207.103 22.2653 209.806 19.7263C211.311 18.3692 212.257 16.4103 212.257 14.227V6.80151H212.246Z" fill="#EFBD64"/>
<path d="M126.725 17.209C124.23 19.7644 119.524 18.1174 119.508 14.2268C119.486 10.4785 124.131 8.60164 126.72 11.2446L128.985 8.9792C128.897 8.89165 128.81 8.79316 128.717 8.71108C126.008 6.16662 121.456 6.16662 118.747 8.71108C115.497 11.5401 115.497 16.9135 118.747 19.7425C121.456 22.287 126.008 22.287 128.717 19.7425C128.81 19.655 128.903 19.5674 128.99 19.4744L126.725 17.209Z" fill="white"/>
</g>
<defs>
<clipPath id="clip0_10_2227">
<rect width="228" height="28.4487" fill="white"/>
</clipPath>
</defs>
</svg>
