<svg width="433" height="55" viewBox="0 0 433 55" fill="none" xmlns="http://www.w3.org/2000/svg">
<g clip-path="url(#clip0_27_2023)">
<path d="M9.03512 0.00467722L0.0115356 9.19067L17.9558 27.4579L26.9794 18.2719L9.03512 0.00467722Z" fill="white"/>
<path d="M53.9444 45.7218L36.008 27.4519L26.967 36.6344L17.9468 27.4519L0 45.7218L9.02018 54.9043L17.9468 45.8276L26.967 54.9995L36.008 45.8276L44.9243 54.9043L53.9444 45.7218Z" fill="#EFBD64"/>
<path d="M44.9223 0.00519609L26.978 18.2725L36.0016 27.4585L53.9458 9.19119L44.9223 0.00519609Z" fill="white"/>
<path d="M406.656 41.8499H413.671V32.8684H422.307C436.564 32.8684 436.564 13.1386 422.307 13.1492H406.646V41.8605L406.656 41.8499ZM413.671 26.3517V19.6658H421.652C424.073 19.6658 425.798 20.9988 425.798 23.0088C425.798 25.0188 424.073 26.3517 421.652 26.3517H413.671Z" fill="#EFBD64"/>
<path d="M341.135 41.85L334.318 31.9904C344.44 27.5579 341.094 12.8743 329.6 13.1493H313.94V41.8606H320.954V32.8791H326.961L333.154 41.8606H341.115L341.135 41.85ZM320.965 19.666H328.946C331.367 19.666 333.092 20.9989 333.092 23.0089C333.092 25.0189 331.367 26.3519 328.946 26.3519H320.965V19.666Z" fill="#EFBD64"/>
<path d="M217.004 13.1492H209.989V41.8605H217.004V13.1492Z" fill="white"/>
<path d="M198.205 13.1492V33.63L184.28 13.1492H174.74V41.8605H181.755V22.2577L195.077 41.8605H205.219V13.1492H198.205Z" fill="white"/>
<path d="M154.902 35.4602V13.1492H147.929V41.8499H171.051V35.4602H154.902Z" fill="white"/>
<path d="M81.2335 41.8499H88.2481V25.2198L97.6631 40.1784L107.068 25.2198V41.8499H114.093V13.1492H107.068L97.6631 28.1078L88.2481 13.1492H81.2335V41.8499Z" fill="white"/>
<path d="M143.398 19.5389V13.1492H118.624V41.8499H143.398V35.4602H125.638V30.4035H136.446V24.0138H125.638V19.5389H143.398Z" fill="white"/>
<path d="M270.335 41.85H277.35L268.018 13.1387H255.631L246.299 41.85H254.165L255.537 37.2164H268.828L270.335 41.85ZM257.428 30.8267L260.764 19.5389H263.082L266.75 30.8267H257.418H257.428Z" fill="white"/>
<path d="M371.303 27.505C371.303 23.284 369.495 19.4967 366.648 16.8731C361.514 11.9645 352.889 11.9645 347.755 16.8731C341.603 22.279 341.603 32.7416 347.755 38.1474C352.889 43.056 361.514 43.056 366.648 38.1474C369.495 35.5238 371.303 31.7366 371.303 27.5156V27.505ZM362.075 33.9581C356.993 38.0628 349.116 34.2015 349.199 27.505C349.137 22.6281 353.595 18.7456 358.23 19.4332C365.245 20.3007 367.728 29.6419 362.075 33.9687V33.9581Z" fill="#EFBD64"/>
<path d="M310.417 26.3518H297.489L303.028 31.9903C298.705 38.6762 288.344 35.5978 288.313 27.5049C288.272 20.2583 297.105 16.6297 302.01 21.7393L306.312 17.3596C306.146 17.1904 305.979 17 305.803 16.8413C300.659 11.9221 292.013 11.9221 286.869 16.8413C280.696 22.3106 280.696 32.6991 286.869 38.1684C292.013 43.0877 300.659 43.0877 305.803 38.1684C308.952 35.2275 310.822 30.8901 310.406 26.3518H310.417Z" fill="#EFBD64"/>
<path d="M403.082 13.1492H396.992V27.5048C397.034 32.0115 393.292 35.6824 388.99 35.6506C384.688 35.6718 380.947 32.0115 380.988 27.5048V13.1492H374.899V27.5048C374.899 31.7258 376.707 35.5131 379.554 38.1367C384.688 43.0453 393.313 43.0453 398.447 38.1367C401.305 35.5131 403.102 31.7258 403.102 27.5048V13.1492H403.082Z" fill="#EFBD64"/>
<path d="M240.666 33.2704C235.928 38.2108 226.991 35.0265 226.959 27.5049C226.918 20.2583 235.741 16.6297 240.656 21.7393L244.958 17.3596C244.792 17.1904 244.626 17 244.449 16.8413C239.305 11.9221 230.659 11.9221 225.515 16.8413C219.342 22.3106 219.342 32.6991 225.515 38.1684C230.659 43.0877 239.305 43.0877 244.449 38.1684C244.626 37.9992 244.802 37.8299 244.969 37.6501L240.666 33.2704Z" fill="white"/>
</g>
<defs>
<clipPath id="clip0_27_2023">
<rect width="433" height="55" fill="white"/>
</clipPath>
</defs>
</svg>
