<svg width="538" height="45" viewBox="0 0 538 45" fill="none" xmlns="http://www.w3.org/2000/svg">
<path d="M0.2 29.92C1.82667 29.92 3.02667 29.16 3.8 27.64C4.57333 26.1067 5.08 23.9467 5.32 21.16C5.50667 18.8267 5.73333 15.6 6 11.48C6.05333 10.6933 6.10667 9.86 6.16 8.98C6.22667 8.08667 6.29333 7.14667 6.36 6.16L25.48 6.2V29.92H27.68V39.8H22.24V35H5.64V39.8H0.2V29.92ZM20.04 11.28L11.32 11.24C11.2133 12.72 11.1333 13.98 11.08 15.02C10.88 18.14 10.7067 20.48 10.56 22.04C10.4133 23.64 10.2733 24.8467 10.14 25.66C10.0067 26.4733 9.8 27.2133 9.52 27.88C9.25333 28.5333 8.85333 29.2133 8.32 29.92H20.04V11.28ZM49.7134 35H44.5134V21.8L34.7534 35H30.4334V13.4H35.6334V26.16L45.4334 13.4H49.7134V35ZM66.0772 28C65.3172 28.3733 64.4772 28.66 63.5572 28.86C62.6505 29.06 61.7039 29.16 60.7172 29.16C58.4905 29.16 56.7172 28.66 55.3972 27.66C54.0772 26.6467 53.2239 25.1733 52.8372 23.24C52.6239 22.1467 52.5172 20.6667 52.5172 18.8V13.4H58.0372V18.8C58.0372 20 58.1305 20.9733 58.3172 21.72C58.5572 22.6533 58.9639 23.3267 59.5372 23.74C60.1239 24.1533 60.9572 24.36 62.0372 24.36C63.6372 24.36 64.9839 23.9333 66.0772 23.08V13.4H71.5572V35H66.0772V28ZM80.9547 13.4V20.28H84.4347C86.328 20.28 87.688 20.36 88.5147 20.52C92.408 21.3867 94.3547 23.7733 94.3547 27.68C94.3547 29.5867 93.8614 31.1267 92.8747 32.3C91.9014 33.4733 90.4614 34.28 88.5547 34.72C87.7414 34.9067 86.368 35 84.4347 35H75.5147V13.4H80.9547ZM85.0347 30.8C85.6614 30.8 86.2214 30.7333 86.7147 30.6C87.288 30.44 87.7814 30.0867 88.1947 29.54C88.6214 28.98 88.8347 28.36 88.8347 27.68C88.8347 26.9467 88.6214 26.3067 88.1947 25.76C87.768 25.2133 87.248 24.8533 86.6347 24.68C86.168 24.5467 85.6347 24.48 85.0347 24.48H80.9547V30.8H85.0347ZM98.7578 27.16H104.198V32.6H98.7578V27.16ZM98.7978 15.8H104.238V21.24H98.7978V15.8ZM126.303 42.76C124.809 41.0133 123.516 39.02 122.423 36.78C121.343 34.5533 120.509 32.2133 119.923 29.76C119.349 27.2933 119.063 24.8467 119.063 22.42V21.8V21.18C119.063 18.7533 119.349 16.3133 119.923 13.86C120.509 11.3933 121.343 9.04667 122.423 6.82C123.516 4.58 124.809 2.58667 126.303 0.839999L130.343 3.8C128.023 6.58667 126.389 9.43333 125.443 12.34C124.496 15.2333 124.009 18.3867 123.983 21.8C124.009 25.2133 124.496 28.3733 125.443 31.28C126.389 34.1733 128.023 37.0133 130.343 39.8L126.303 42.76ZM133.099 13.4H138.539V21.64H147.419V13.4H152.859V35H147.419V26.72H138.539V35H133.099V13.4ZM161.512 25.72C161.712 27.2667 162.238 28.4533 163.092 29.28C163.958 30.1067 165.118 30.52 166.572 30.52C167.625 30.52 168.532 30.2867 169.292 29.82C170.065 29.3533 170.652 28.68 171.052 27.8L176.492 29.36C175.958 30.6533 175.205 31.7733 174.232 32.72C173.258 33.6533 172.138 34.3667 170.872 34.86C169.605 35.3533 168.278 35.6 166.892 35.6C164.705 35.6 162.758 35.1267 161.052 34.18C159.358 33.2333 158.032 31.9133 157.072 30.22C156.125 28.5267 155.652 26.6133 155.652 24.48C155.652 22.16 156.112 20.12 157.032 18.36C157.965 16.5867 159.258 15.22 160.912 14.26C162.565 13.2867 164.452 12.8 166.572 12.8C168.652 12.8 170.458 13.26 171.992 14.18C173.525 15.1 174.698 16.4067 175.512 18.1C176.338 19.7933 176.752 21.78 176.752 24.06C176.752 24.42 176.725 24.9733 176.672 25.72H161.512ZM166.812 17.52C163.945 17.52 162.225 18.9067 161.652 21.68H171.172C170.985 20.2267 170.538 19.1733 169.832 18.52C169.138 17.8533 168.132 17.52 166.812 17.52ZM176.786 39.8C179.106 37.0133 180.739 34.1733 181.686 31.28C182.633 28.3733 183.119 25.2133 183.146 21.8C183.119 18.3867 182.633 15.2333 181.686 12.34C180.739 9.43333 179.106 6.58667 176.786 3.8L180.826 0.839999C182.319 2.58667 183.606 4.58 184.686 6.82C185.779 9.04667 186.613 11.3933 187.186 13.86C187.773 16.3133 188.066 18.7533 188.066 21.18V21.8V22.42C188.066 24.8467 187.773 27.2933 187.186 29.76C186.613 32.2133 185.779 34.5533 184.686 36.78C183.606 39.02 182.319 41.0133 180.826 42.76L176.786 39.8ZM201.23 13.4H206.43V30.2H211.87V13.4H217.07V30.2H222.51V13.4H227.71V35H201.23V13.4ZM248.942 16.72C249.328 17.44 249.568 18.1733 249.662 18.92C249.768 19.6533 249.822 20.6133 249.822 21.8V35H245.062V32.36C244.102 33.5067 243.048 34.3333 241.902 34.84C240.755 35.3467 239.355 35.6 237.702 35.6C236.208 35.6 234.915 35.3133 233.822 34.74C232.742 34.1533 231.915 33.36 231.342 32.36C230.782 31.36 230.502 30.2533 230.502 29.04C230.502 27.4667 230.868 26.14 231.602 25.06C232.335 23.98 233.542 23.1333 235.222 22.52C236.155 22.1733 237.295 21.88 238.642 21.64C239.988 21.3867 241.928 21.0733 244.462 20.7C244.355 19.6867 243.982 18.9467 243.342 18.48C242.715 18 241.768 17.76 240.502 17.76C239.582 17.76 238.708 17.9733 237.882 18.4C237.055 18.8267 236.488 19.4933 236.182 20.4L231.262 18.84C231.822 16.9733 232.875 15.5 234.422 14.42C235.968 13.34 237.995 12.8 240.502 12.8C244.755 12.8 247.568 14.1067 248.942 16.72ZM243.862 28.44C244.208 27.7333 244.395 26.62 244.422 25.1C242.542 25.42 241.162 25.6733 240.282 25.86C239.402 26.0467 238.662 26.2533 238.062 26.48C237.275 26.8 236.702 27.16 236.342 27.56C235.995 27.9467 235.822 28.4133 235.822 28.96C235.822 29.6933 236.088 30.2733 236.622 30.7C237.168 31.1133 237.915 31.32 238.862 31.32C239.782 31.32 240.588 31.16 241.282 30.84C241.975 30.5067 242.528 30.12 242.942 29.68C243.368 29.24 243.675 28.8267 243.862 28.44ZM266.771 13.4H272.211L260.011 44.6H254.971L258.531 34.82L249.811 13.4H255.451L261.131 28.1L266.771 13.4ZM283.743 12.8C285.77 12.8 287.557 13.2867 289.103 14.26C290.663 15.2333 291.863 16.5867 292.703 18.32C293.557 20.0533 293.983 22.0133 293.983 24.2C293.983 26.3467 293.563 28.2867 292.723 30.02C291.897 31.7533 290.723 33.12 289.203 34.12C287.697 35.1067 285.97 35.6 284.023 35.6C282.05 35.6 280.33 35.14 278.863 34.22V44.6H273.383V13.4H278.183V14.6C279.717 13.4 281.57 12.8 283.743 12.8ZM283.143 30.76C284.823 30.76 286.09 30.1533 286.943 28.94C287.797 27.7133 288.223 26.1333 288.223 24.2C288.223 22.96 288.03 21.8467 287.643 20.86C287.257 19.8733 286.67 19.0933 285.883 18.52C285.097 17.9333 284.117 17.64 282.943 17.64C281.303 17.64 280.097 18.22 279.323 19.38C278.563 20.54 278.183 22.1467 278.183 24.2C278.183 28.5733 279.837 30.76 283.143 30.76ZM296.744 13.4H301.144L308.664 27.4L316.184 13.4H320.584V35H315.384V24.24L309.624 35H307.704L301.944 24.24V35H296.744V13.4ZM341.838 16.72C342.225 17.44 342.465 18.1733 342.558 18.92C342.665 19.6533 342.718 20.6133 342.718 21.8V35H337.958V32.36C336.998 33.5067 335.945 34.3333 334.798 34.84C333.652 35.3467 332.252 35.6 330.598 35.6C329.105 35.6 327.812 35.3133 326.718 34.74C325.638 34.1533 324.812 33.36 324.238 32.36C323.678 31.36 323.398 30.2533 323.398 29.04C323.398 27.4667 323.765 26.14 324.498 25.06C325.232 23.98 326.438 23.1333 328.118 22.52C329.052 22.1733 330.192 21.88 331.538 21.64C332.885 21.3867 334.825 21.0733 337.358 20.7C337.252 19.6867 336.878 18.9467 336.238 18.48C335.612 18 334.665 17.76 333.398 17.76C332.478 17.76 331.605 17.9733 330.778 18.4C329.952 18.8267 329.385 19.4933 329.078 20.4L324.158 18.84C324.718 16.9733 325.772 15.5 327.318 14.42C328.865 13.34 330.892 12.8 333.398 12.8C337.652 12.8 340.465 14.1067 341.838 16.72ZM336.758 28.44C337.105 27.7333 337.292 26.62 337.318 25.1C335.438 25.42 334.058 25.6733 333.178 25.86C332.298 26.0467 331.558 26.2533 330.958 26.48C330.172 26.8 329.598 27.16 329.238 27.56C328.892 27.9467 328.718 28.4133 328.718 28.96C328.718 29.6933 328.985 30.2733 329.518 30.7C330.065 31.1133 330.812 31.32 331.758 31.32C332.678 31.32 333.485 31.16 334.178 30.84C334.872 30.5067 335.425 30.12 335.838 29.68C336.265 29.24 336.572 28.8267 336.758 28.44ZM371.967 35H366.767V21.8L357.007 35H352.687V13.4H357.887V26.16L367.687 13.4H371.967V35ZM391.478 35.64C389.438 35.6133 387.691 35.16 386.238 34.28C384.785 33.3867 383.645 32.1467 382.818 30.56C381.991 28.9733 381.478 27.1067 381.278 24.96C381.211 24.1333 381.178 23.3267 381.178 22.54C381.178 20.86 381.305 19.1933 381.558 17.54C381.811 15.8867 382.185 14.5067 382.678 13.4C383.078 12.52 383.611 11.7 384.278 10.94C384.945 10.1667 385.678 9.49333 386.478 8.92C387.278 8.34666 388.158 7.89333 389.118 7.56C390.091 7.21333 391.051 6.95333 391.998 6.78C392.958 6.60667 394.205 6.42 395.738 6.22C397.578 5.98 398.945 5.77333 399.838 5.6L400.318 10.4C399.825 10.5333 399.265 10.64 398.638 10.72C398.025 10.8 397.238 10.8867 396.278 10.98C394.585 11.14 393.198 11.3267 392.118 11.54C391.038 11.74 390.118 12.08 389.358 12.56C388.478 13.1067 387.785 13.88 387.278 14.88C386.771 15.88 386.478 16.9333 386.398 18.04C387.158 16.92 388.118 16.1133 389.278 15.62C390.438 15.1267 391.665 14.88 392.958 14.88C394.811 14.88 396.431 15.3333 397.818 16.24C399.205 17.1333 400.265 18.3533 400.998 19.9C401.745 21.4467 402.118 23.16 402.118 25.04C402.118 27.1333 401.665 28.9867 400.758 30.6C399.851 32.2133 398.591 33.4667 396.978 34.36C395.365 35.24 393.531 35.6667 391.478 35.64ZM391.718 30.56C393.225 30.56 394.378 30.0933 395.178 29.16C395.991 28.2133 396.398 26.92 396.398 25.28C396.398 23.6267 395.991 22.3333 395.178 21.4C394.365 20.4667 393.211 20 391.718 20C390.198 20 389.038 20.4667 388.238 21.4C387.438 22.32 387.038 23.6133 387.038 25.28C387.038 26.9733 387.438 28.28 388.238 29.2C389.051 30.1067 390.211 30.56 391.718 30.56ZM418.697 13.4H424.137L411.937 44.6H406.897L410.457 34.82L401.737 13.4H407.377L413.057 28.1L418.697 13.4ZM435.67 12.8C437.697 12.8 439.483 13.2867 441.03 14.26C442.59 15.2333 443.79 16.5867 444.63 18.32C445.483 20.0533 445.91 22.0133 445.91 24.2C445.91 26.3467 445.49 28.2867 444.65 30.02C443.823 31.7533 442.65 33.12 441.13 34.12C439.623 35.1067 437.897 35.6 435.95 35.6C433.977 35.6 432.257 35.14 430.79 34.22V44.6H425.31V13.4H430.11V14.6C431.643 13.4 433.497 12.8 435.67 12.8ZM435.07 30.76C436.75 30.76 438.017 30.1533 438.87 28.94C439.723 27.7133 440.15 26.1333 440.15 24.2C440.15 22.96 439.957 21.8467 439.57 20.86C439.183 19.8733 438.597 19.0933 437.81 18.52C437.023 17.9333 436.043 17.64 434.87 17.64C433.23 17.64 432.023 18.22 431.25 19.38C430.49 20.54 430.11 22.1467 430.11 24.2C430.11 28.5733 431.763 30.76 435.07 30.76ZM448.711 13.4H464.311V18.48H454.151V35H448.711V13.4ZM471.185 25.72C471.385 27.2667 471.912 28.4533 472.765 29.28C473.632 30.1067 474.792 30.52 476.245 30.52C477.298 30.52 478.205 30.2867 478.965 29.82C479.738 29.3533 480.325 28.68 480.725 27.8L486.165 29.36C485.632 30.6533 484.878 31.7733 483.905 32.72C482.932 33.6533 481.812 34.3667 480.545 34.86C479.278 35.3533 477.952 35.6 476.565 35.6C474.378 35.6 472.432 35.1267 470.725 34.18C469.032 33.2333 467.705 31.9133 466.745 30.22C465.798 28.5267 465.325 26.6133 465.325 24.48C465.325 22.16 465.785 20.12 466.705 18.36C467.638 16.5867 468.932 15.22 470.585 14.26C472.238 13.2867 474.125 12.8 476.245 12.8C478.325 12.8 480.132 13.26 481.665 14.18C483.198 15.1 484.372 16.4067 485.185 18.1C486.012 19.7933 486.425 21.78 486.425 24.06C486.425 24.42 486.398 24.9733 486.345 25.72H471.185ZM476.485 17.52C473.618 17.52 471.898 18.9067 471.325 21.68H480.845C480.658 20.2267 480.212 19.1733 479.505 18.52C478.812 17.8533 477.805 17.52 476.485 17.52ZM499.581 12.8C501.608 12.8 503.394 13.2867 504.941 14.26C506.501 15.2333 507.701 16.5867 508.541 18.32C509.394 20.0533 509.821 22.0133 509.821 24.2C509.821 26.3467 509.401 28.2867 508.561 30.02C507.734 31.7533 506.561 33.12 505.041 34.12C503.534 35.1067 501.808 35.6 499.861 35.6C497.888 35.6 496.168 35.14 494.701 34.22V44.6H489.221V13.4H494.021V14.6C495.554 13.4 497.408 12.8 499.581 12.8ZM498.981 30.76C500.661 30.76 501.928 30.1533 502.781 28.94C503.634 27.7133 504.061 26.1333 504.061 24.2C504.061 22.96 503.868 21.8467 503.481 20.86C503.094 19.8733 502.508 19.0933 501.721 18.52C500.934 17.9333 499.954 17.64 498.781 17.64C497.141 17.64 495.934 18.22 495.161 19.38C494.401 20.54 494.021 22.1467 494.021 24.2C494.021 28.5733 495.674 30.76 498.981 30.76ZM518.022 13.4V20.28H519.982C521.875 20.28 523.235 20.36 524.062 20.52C527.955 21.3867 529.902 23.7733 529.902 27.68C529.902 29.5867 529.409 31.1267 528.422 32.3C527.449 33.4733 526.009 34.28 524.102 34.72C523.289 34.9067 521.915 35 519.982 35H512.582V13.4H518.022ZM537.502 13.4V35H532.062V13.4H537.502ZM520.582 30.8C521.209 30.8 521.769 30.7333 522.262 30.6C522.835 30.44 523.329 30.0867 523.742 29.54C524.169 28.98 524.382 28.36 524.382 27.68C524.382 26.9467 524.169 26.3067 523.742 25.76C523.315 25.2133 522.795 24.8533 522.182 24.68C521.715 24.5467 521.182 24.48 520.582 24.48H518.022V30.8H520.582Z" fill="white"/>
</svg>
