<svg width="354" height="54" viewBox="0 0 354 54" fill="none" xmlns="http://www.w3.org/2000/svg">
<g clip-path="url(#clip0_149_365)">
<path d="M56.0218 15.3383C55.6991 14.4802 54.8743 13.8962 53.954 13.8962C53.0336 13.8962 52.1969 14.4683 51.8862 15.3383L43.9257 36.7905C43.5313 37.8512 43.9736 39.043 44.9537 39.5555C45.2764 39.7223 45.623 39.8058 45.9816 39.8058C46.2446 39.8058 46.5195 39.7581 46.7705 39.6627C47.3561 39.4363 47.8223 38.9596 48.0494 38.3756L53.4042 23.9549C53.5356 23.6093 53.8345 23.5736 53.9659 23.5736C54.0974 23.5736 54.3962 23.6093 54.5277 23.9549L59.8825 38.3756C60.0976 38.9715 60.5638 39.4363 61.1614 39.6627C61.7471 39.8892 62.4164 39.8534 62.9782 39.5555C63.9583 39.043 64.4005 37.8631 64.0061 36.7905L56.0457 15.3383H56.0218Z" fill="white"/>
<path d="M80.1541 24.8011C78.3134 23.2756 76.0066 22.501 73.3053 22.501H70.4845C70.0422 22.501 69.6717 22.1434 69.6717 21.6905V16.1011C69.6717 15.5052 69.4326 14.9331 69.0023 14.516C68.572 14.0988 67.9864 13.8724 67.4007 13.8962C66.2413 13.932 65.2612 14.9689 65.2612 16.1606V36.9574C65.2612 38.5305 66.5401 39.8058 68.1178 39.8058H73.3053C76.0066 39.8058 78.3134 39.0311 80.1541 37.4937C82.0546 35.9205 83.0944 33.668 83.0944 31.1534C83.0944 28.6387 82.0546 26.3862 80.1541 24.8011ZM78.672 31.1534C78.672 32.3571 78.2058 33.382 77.3213 34.1209C76.2815 34.9909 74.9667 35.408 73.3053 35.408H69.839C69.7434 35.408 69.6717 35.3365 69.6717 35.2412V27.721C69.6717 27.28 70.0303 26.9106 70.4845 26.9106H73.3053C74.9667 26.9106 76.2815 27.3277 77.3213 28.1977C78.2058 28.9366 78.672 29.9496 78.672 31.1653V31.1534Z" fill="white"/>
<path d="M31.6743 18.3059H40.6268C41.2245 18.3059 41.7982 18.0675 42.2165 17.6385C42.6349 17.2095 42.862 16.6374 42.8381 16.0415C42.8022 14.8855 41.7623 13.9082 40.5671 13.9082H31.256C28.6145 13.9082 26.463 16.0534 26.463 18.6873V35.0267C26.463 37.6606 28.6145 39.8058 31.256 39.8058H40.6388C41.2364 39.8058 41.8101 39.5674 42.2285 39.1384C42.6468 38.7094 42.8739 38.1373 42.85 37.5414C42.8142 36.3854 41.7743 35.4081 40.579 35.4081H31.6982C31.256 35.4081 30.8855 35.0506 30.8855 34.5977V31.0461C30.8855 30.486 31.3516 30.0212 31.9134 30.0212H38.4873C39.085 30.0212 39.6467 29.7828 40.077 29.3538C40.4954 28.9248 40.7225 28.3527 40.6986 27.7568C40.6627 26.6008 39.6228 25.6235 38.4276 25.6235H31.9134C31.3516 25.6235 30.8855 25.1587 30.8855 24.5986V19.1163C30.8855 18.6754 31.2441 18.3059 31.6982 18.3059H31.6743Z" fill="white"/>
<path d="M22.8772 14.0631C21.8373 13.646 20.654 14.0631 20.1161 15.0404L13.0282 27.7925C12.8489 28.1262 12.5143 28.3169 12.1318 28.3169C11.7493 28.3169 11.4146 28.1143 11.2353 27.7925L4.17134 15.088C3.71715 14.2776 2.83265 13.8128 1.94816 13.9201C0.83657 14.0631 0.0118408 14.9927 0.0118408 16.1011V37.5414C0.0118408 38.7331 0.991953 39.77 2.15136 39.8058C2.17526 39.8058 2.19917 39.8058 2.22307 39.8058C2.7968 39.8058 3.34661 39.5912 3.76496 39.186C4.19525 38.7689 4.4343 38.2088 4.4343 37.6009V25.2421C4.4343 25.2421 4.4343 25.111 4.55383 25.0871C4.68531 25.0633 4.72116 25.1348 4.73312 25.1706L10.1835 34.9671C10.5062 35.5511 11.0441 35.9563 11.6537 36.0993C12.6218 36.3138 13.59 35.8848 14.0681 35.0148L19.5424 25.1706C19.5424 25.1706 19.6021 25.0633 19.7217 25.0871C19.8412 25.1229 19.8412 25.2063 19.8412 25.2421V37.5294C19.8412 38.7212 20.8213 39.7581 21.9807 39.7938H22.0524C22.6262 39.7938 23.176 39.5793 23.5943 39.1741C24.0246 38.757 24.2637 38.1968 24.2637 37.589V16.1606C24.2637 15.231 23.7138 14.3968 22.8891 14.0631H22.8772Z" fill="white"/>
<path d="M101.872 13.8963C100.713 13.932 99.7324 14.9689 99.7324 16.1607V24.4794C99.7324 25.1587 99.1707 25.7188 98.4894 25.7188H90.9473C90.266 25.7188 89.7042 25.1587 89.7042 24.4794V16.0892C89.7042 15.4933 89.4652 14.9331 89.0349 14.5041C88.6046 14.0869 88.0308 13.8605 87.4332 13.8843C86.2738 13.9201 85.2937 14.9569 85.2937 16.1487V37.601C85.2937 38.1969 85.5328 38.757 85.963 39.186C86.3814 39.5912 86.9192 39.8058 87.493 39.8058C87.5169 39.8058 87.5408 39.8058 87.5647 39.8058C88.7241 39.77 89.7042 38.7332 89.7042 37.5414V31.3679C89.7042 30.6886 90.266 30.1284 90.9473 30.1284H98.4894C99.1707 30.1284 99.7324 30.6886 99.7324 31.3679V37.5414C99.7324 38.7332 100.713 39.77 101.872 39.8058H101.944C102.517 39.8058 103.067 39.5912 103.486 39.186C103.916 38.7689 104.155 38.2088 104.155 37.601V16.1011C104.155 15.5052 103.916 14.945 103.486 14.516C103.055 14.0989 102.482 13.8724 101.884 13.8963H101.872Z" fill="white"/>
<path d="M171.783 36.7548L163.5 15.3026C163.105 14.2776 161.993 13.7056 160.918 13.9558C160.213 14.1227 159.627 14.6471 159.352 15.3502L151.069 36.8144C150.854 37.3745 150.878 37.9823 151.129 38.5305C151.38 39.0788 151.834 39.484 152.408 39.6866C153.519 40.0799 154.786 39.4721 155.216 38.3399L157.021 33.6561C157.236 33.096 157.786 32.7265 158.384 32.7265H164.492C165.089 32.7265 165.639 33.096 165.854 33.6561L167.683 38.3995C168.006 39.2456 168.842 39.8058 169.739 39.8058C170.097 39.8058 170.432 39.7223 170.755 39.5555C171.759 39.043 172.201 37.8393 171.783 36.7548ZM161.587 22.6202L163.703 28.0905C163.727 28.162 163.703 28.2096 163.691 28.2454C163.667 28.2812 163.631 28.3169 163.559 28.3169H159.328C159.256 28.3169 159.209 28.2692 159.197 28.2454C159.173 28.2096 159.149 28.162 159.173 28.0905L161.288 22.6202C161.312 22.5486 161.36 22.5129 161.444 22.5129C161.551 22.5129 161.587 22.5963 161.599 22.6202H161.587Z" fill="white"/>
<path d="M123.279 13.8962C122.096 13.932 121.14 14.945 121.14 16.1606V30.1165C121.14 30.6051 120.829 31.0342 120.375 31.1891L110.573 34.5261V16.1606C110.573 14.945 109.617 13.932 108.434 13.8962C108.41 13.8962 108.398 13.8962 108.374 13.8962C107.788 13.8962 107.239 14.1108 106.832 14.516C106.402 14.9331 106.163 15.4932 106.163 16.1011V37.6009V37.887H106.187V37.9346C106.187 37.9346 106.211 38.03 106.223 38.0896V38.1372C106.223 38.1372 106.259 38.2445 106.282 38.2922L106.438 38.2445L106.306 38.3637C106.306 38.3637 106.342 38.4709 106.366 38.5186L106.39 38.5663C106.39 38.5663 106.438 38.6616 106.462 38.7093L106.498 38.7689C106.498 38.7689 106.545 38.8404 106.581 38.8881L106.629 38.9477C106.629 38.9477 106.677 39.0192 106.701 39.043L106.761 39.1145C106.761 39.1145 106.82 39.1741 106.844 39.1979C106.868 39.2218 106.892 39.2456 106.904 39.2575C106.94 39.2933 106.976 39.3171 107 39.341C107.024 39.3529 107.047 39.3767 107.059 39.3886C107.095 39.4125 107.143 39.4482 107.179 39.472L107.227 39.4959C107.227 39.4959 107.322 39.5436 107.37 39.5674L107.418 39.5912C107.418 39.5912 107.514 39.6389 107.573 39.6508H107.621C107.621 39.6508 107.717 39.6985 107.777 39.7104H107.836C107.836 39.7104 107.932 39.7462 107.968 39.7581H108.063C108.063 39.7581 108.147 39.7819 108.183 39.7819C108.219 39.7819 108.243 39.7819 108.302 39.7819C108.326 39.7819 108.35 39.7819 108.374 39.7819H108.541C108.541 39.7819 108.565 39.7819 108.577 39.7819L108.721 39.7581C108.721 39.7581 108.804 39.7462 108.864 39.7342H108.912C108.912 39.7342 109.008 39.6985 109.055 39.6747L120.458 35.7894C120.626 35.7298 120.793 35.7656 120.936 35.8609C121.08 35.9563 121.151 36.1112 121.151 36.29V37.5175C121.151 38.7331 122.108 39.7462 123.291 39.7819C123.889 39.7938 124.462 39.5793 124.893 39.1622C125.323 38.7451 125.562 38.1849 125.562 37.5771V16.1011C125.562 15.5052 125.323 14.9331 124.893 14.516C124.462 14.0988 123.901 13.8724 123.291 13.8962H123.279Z" fill="white"/>
<path d="M149.981 37.3745C149.945 37.017 149.814 36.6713 149.611 36.3615C149.575 36.3019 149.527 36.2423 149.479 36.1946C149.252 35.9205 148.965 35.706 148.63 35.563C148.356 35.4438 148.069 35.3842 147.77 35.3842H147.483C147.196 35.3842 146.957 35.1459 146.957 34.8598V16.1606C146.957 14.945 146.001 13.932 144.818 13.8962C144.196 13.8724 143.646 14.0988 143.216 14.516C142.786 14.9331 142.547 15.4932 142.547 16.1011V34.8837C142.547 35.1697 142.308 35.408 142.021 35.408H132.494C132.208 35.408 131.969 35.1697 131.969 34.8837V16.1606C131.969 14.945 131.012 13.932 129.829 13.8962C129.231 13.8962 128.658 14.0988 128.227 14.516C127.797 14.9331 127.558 15.4932 127.558 16.1011V37.6009C127.558 37.8989 127.618 38.1849 127.737 38.459C127.881 38.7808 128.096 39.0788 128.371 39.3052C128.431 39.3529 128.478 39.3886 128.538 39.4363C128.837 39.6389 129.184 39.77 129.554 39.8058C129.626 39.8058 129.698 39.8058 129.781 39.8058H145.057C145.355 39.8058 145.583 40.0441 145.583 40.3421C145.583 41.5577 146.539 42.5707 147.722 42.6065H147.794C148.368 42.6065 148.917 42.3919 149.336 41.9867C149.766 41.5696 150.005 41.0095 150.005 40.4016V37.6009C150.005 37.5294 150.005 37.446 150.005 37.3745H149.981Z" fill="white"/>
<path d="M257.303 13.8962H246.451C243.821 13.8962 241.669 16.0295 241.669 18.6634V37.5414C241.669 38.7331 242.65 39.77 243.809 39.8058H243.881C244.454 39.8058 245.004 39.5912 245.423 39.186C245.853 38.7689 246.092 38.2088 246.092 37.6009V19.1401C246.092 18.6753 246.462 18.3059 246.929 18.3059H256.837C257.303 18.3059 257.674 18.6753 257.674 19.1401V37.5414C257.674 38.757 258.594 39.7462 259.778 39.8058C260.997 39.8534 262.025 38.9238 262.085 37.7082V18.6634C262.085 16.0415 259.945 13.8962 257.303 13.8962Z" fill="white"/>
<path d="M353.845 36.7548L345.561 15.3026C345.167 14.2776 344.055 13.7056 342.98 13.9558C342.275 14.1227 341.689 14.6352 341.414 15.3502L333.131 36.8144C332.916 37.3745 332.94 37.9823 333.191 38.5305C333.442 39.0788 333.896 39.484 334.469 39.6866C335.581 40.068 336.848 39.4721 337.278 38.3399L339.083 33.6561C339.298 33.096 339.848 32.7265 340.446 32.7265H346.554C347.151 32.7265 347.701 33.096 347.916 33.6561L349.745 38.3875C350.068 39.2337 350.904 39.7938 351.801 39.7938C352.159 39.7938 352.494 39.7104 352.817 39.5436C353.821 39.0311 354.263 37.8274 353.845 36.7429V36.7548ZM345.753 28.2454C345.753 28.2454 345.693 28.3169 345.621 28.3169H341.39C341.318 28.3169 341.282 28.2812 341.259 28.2454C341.235 28.2216 341.211 28.162 341.247 28.0905L343.362 22.6202C343.386 22.5486 343.446 22.5129 343.518 22.5129C343.589 22.5129 343.637 22.5486 343.673 22.6202L345.789 28.0905C345.812 28.162 345.789 28.2096 345.777 28.2454H345.753Z" fill="white"/>
<path d="M281.4 14.0511C280.217 14.0869 279.26 15.0999 279.26 16.3155V30.2714C279.26 30.76 278.95 31.1891 278.495 31.344L268.694 34.681V16.3155C268.694 15.0999 267.738 14.0869 266.555 14.0511C265.957 14.0273 265.383 14.2538 264.953 14.6709C264.523 15.088 264.284 15.6481 264.284 16.256V37.7439V37.8035C264.284 37.8035 264.284 37.8512 264.284 37.875V38.03H264.296V38.0776C264.296 38.0776 264.32 38.173 264.332 38.2326V38.2683C264.332 38.2683 264.367 38.3756 264.391 38.4233L264.415 38.4828C264.415 38.4828 264.451 38.5901 264.475 38.6378L264.499 38.6854C264.499 38.6854 264.547 38.7808 264.571 38.8285L264.618 38.9C264.618 38.9 264.666 38.9834 264.69 39.0072L264.762 39.1026C264.762 39.1026 264.81 39.1502 264.822 39.186L264.881 39.2575C264.881 39.2575 264.941 39.3171 264.965 39.3409C264.989 39.3648 265.013 39.3767 265.025 39.4005C265.061 39.4244 265.097 39.4601 265.132 39.4839L265.192 39.5316C265.192 39.5316 265.276 39.5912 265.312 39.615L265.36 39.6389C265.36 39.6389 265.443 39.6865 265.491 39.7104L265.539 39.7342C265.539 39.7342 265.634 39.7819 265.694 39.7938H265.742C265.742 39.7938 265.838 39.8415 265.897 39.8534L265.969 39.8772C265.969 39.8772 266.065 39.9011 266.101 39.9011H266.196C266.196 39.9011 266.28 39.9249 266.316 39.9249H266.423C266.423 39.9249 266.471 39.9487 266.507 39.9249H266.662C266.686 39.9249 266.698 39.9249 266.722 39.9249H266.794C266.794 39.9249 266.83 39.913 266.842 39.913C266.889 39.913 266.937 39.9011 266.985 39.8892H267.033C267.033 39.8892 267.117 39.8534 267.176 39.8415L278.579 35.9562C278.746 35.8967 278.914 35.9324 279.057 36.0278C279.201 36.1231 279.272 36.278 279.272 36.4568V37.6843C279.272 38.9 280.229 39.913 281.412 39.9487C282.021 39.9487 282.583 39.7461 283.013 39.329C283.444 38.9119 283.683 38.3517 283.683 37.7439V16.244C283.683 15.6481 283.444 15.088 283.013 14.659C282.583 14.2418 282.021 14.0273 281.412 14.0392L281.4 14.0511Z" fill="white"/>
<path d="M332.043 37.5294C332.007 37.1719 331.876 36.8263 331.673 36.5164C331.637 36.4568 331.589 36.3972 331.541 36.3495C331.314 36.0754 331.027 35.8609 330.692 35.7179C330.418 35.5987 330.131 35.5391 329.832 35.5391H329.545C329.258 35.5391 329.019 35.3008 329.019 35.0147V16.3155C329.019 15.0999 328.063 14.0869 326.88 14.0511C326.282 14.0392 325.708 14.2538 325.278 14.6709C324.848 15.088 324.609 15.6481 324.609 16.256V35.0386C324.609 35.3246 324.37 35.563 324.083 35.563H314.556C314.27 35.563 314.031 35.3246 314.031 35.0386V16.3155C314.031 15.0999 313.074 14.0869 311.891 14.0511C311.293 14.0273 310.72 14.2538 310.289 14.6709C309.859 15.088 309.62 15.6481 309.62 16.256V37.7558C309.62 38.0538 309.68 38.3398 309.799 38.6139C309.943 38.9357 310.158 39.2337 310.433 39.4601C310.493 39.5078 310.54 39.5435 310.6 39.5912C310.899 39.7938 311.246 39.9249 311.616 39.9607C311.688 39.9607 311.759 39.9607 311.843 39.9607H327.119C327.417 39.9607 327.644 40.199 327.644 40.497C327.644 41.7126 328.601 42.7256 329.784 42.7614H329.856C330.429 42.7614 330.979 42.5468 331.398 42.1416C331.828 41.7245 332.067 41.1644 332.067 40.5566V37.7558C332.067 37.6843 332.067 37.6009 332.067 37.5294H332.043Z" fill="white"/>
<path d="M308.269 37.5294C308.233 37.1719 308.102 36.8263 307.899 36.5164C307.863 36.4568 307.815 36.3972 307.767 36.3495C307.54 36.0754 307.253 35.8609 306.919 35.7179C306.644 35.5987 306.357 35.5391 306.058 35.5391H305.771C305.484 35.5391 305.245 35.3008 305.245 35.0147V16.3155C305.245 15.0999 304.289 14.0869 303.106 14.0511C302.508 14.0273 301.934 14.2538 301.504 14.6709C301.074 15.088 300.835 15.6481 300.835 16.256V35.0386C300.835 35.3246 300.596 35.563 300.309 35.563H290.783C290.496 35.563 290.257 35.3246 290.257 35.0386V16.3155C290.257 15.0999 289.301 14.0869 288.117 14.0511C287.52 14.0273 286.946 14.2538 286.516 14.6709C286.085 15.088 285.846 15.6481 285.846 16.256V37.7558C285.846 38.0538 285.906 38.3398 286.026 38.6139C286.169 38.9357 286.384 39.2337 286.659 39.4601C286.719 39.5078 286.767 39.5435 286.826 39.5912C287.125 39.7938 287.472 39.9249 287.842 39.9607C287.914 39.9607 287.986 39.9607 288.069 39.9607H303.345C303.632 39.9607 303.871 40.199 303.871 40.497C303.871 41.7126 304.827 42.7256 306.01 42.7614H306.082C306.656 42.7614 307.206 42.5468 307.624 42.1416C308.054 41.7245 308.293 41.1644 308.293 40.5566V37.7558C308.293 37.6843 308.293 37.6009 308.293 37.5294H308.269Z" fill="white"/>
<path d="M214.477 50.6272L214.083 49.5546C213.975 49.2567 213.617 49.1375 213.342 49.2805C212.589 49.6857 211.788 50.0314 210.939 50.2935C209.625 50.6988 208.202 50.9133 206.732 50.9133C205.561 50.9133 204.413 50.7703 203.338 50.52C202.895 50.4127 202.644 49.9479 202.8 49.5189L203.266 48.2794C203.397 47.9219 203.78 47.7193 204.15 47.8146C204.975 48.0291 205.836 48.1364 206.72 48.1364C207.844 48.1364 208.919 47.9576 209.935 47.6239C210.82 47.3379 211.657 46.9327 212.41 46.4321C212.649 46.2653 212.744 45.9554 212.649 45.6813L211.764 43.2858L208.238 33.7753C208.011 33.1437 207.401 32.7266 206.732 32.7266C206.063 32.7266 205.453 33.1437 205.226 33.7753L201.7 43.2858L200.648 46.1461L199.596 48.9826L198.987 50.6272C198.7 51.4019 199.023 52.2719 199.728 52.6414C199.788 52.6771 199.847 52.701 199.907 52.7248C201.975 53.5471 204.294 54 206.744 54C209.194 54 211.501 53.5471 213.557 52.7248C213.581 52.7248 213.605 52.7129 213.629 52.701C213.665 52.689 213.712 52.6652 213.76 52.6414C214.477 52.2719 214.8 51.4019 214.513 50.6272H214.477ZM206.158 40.4494C206.29 40.0918 206.625 40.068 206.72 40.068C206.816 40.068 207.138 40.1037 207.27 40.4494L208.668 44.2035C208.788 44.5253 208.597 44.8947 208.25 44.9543C207.76 45.0497 207.246 45.1093 206.72 45.1093C206.194 45.1093 205.68 45.0616 205.19 44.9543C204.844 44.8828 204.652 44.5253 204.772 44.2035L206.17 40.4494H206.158Z" fill="white"/>
<path d="M198.951 3.37277L199.345 4.44538C199.453 4.74332 199.812 4.8625 200.086 4.71949C200.839 4.31428 201.64 3.96866 202.489 3.70647C203.804 3.30126 205.226 3.08674 206.696 3.08674C207.868 3.08674 209.015 3.22975 210.091 3.48003C210.533 3.58729 210.784 4.05209 210.629 4.48113L210.162 5.72059C210.031 6.07813 209.649 6.28073 209.278 6.18539C208.453 5.97087 207.593 5.86361 206.708 5.86361C205.585 5.86361 204.509 6.04237 203.493 6.37608C202.608 6.66211 201.772 7.06731 201.019 7.56787C200.78 7.73472 200.684 8.04458 200.78 8.31869L201.664 10.7142L205.19 20.2247C205.417 20.8563 206.027 21.2734 206.696 21.2734C207.366 21.2734 207.975 20.8563 208.202 20.2247L211.728 10.7142L212.78 7.8539L213.832 5.01744L214.442 3.37277C214.728 2.5981 214.406 1.7281 213.7 1.35864C213.641 1.32289 213.581 1.29905 213.521 1.27522C211.453 0.45288 209.135 0 206.684 0C204.234 0 201.927 0.45288 199.871 1.27522C199.847 1.27522 199.823 1.28713 199.8 1.29905C199.764 1.31097 199.716 1.3348 199.668 1.35864C198.951 1.7281 198.628 2.5981 198.915 3.37277H198.951ZM207.27 13.5507C207.138 13.9082 206.804 13.932 206.708 13.932C206.613 13.932 206.29 13.8963 206.158 13.5507L204.76 9.79651C204.64 9.47473 204.832 9.10528 205.178 9.04568C205.668 8.95034 206.182 8.89075 206.708 8.89075C207.234 8.89075 207.748 8.93842 208.238 9.04568C208.585 9.11719 208.776 9.47473 208.656 9.79651L207.258 13.5507H207.27Z" fill="white"/>
<path d="M183.018 34.7407L184.094 34.3474C184.393 34.2401 184.512 33.8826 184.369 33.6085C183.962 32.8577 183.616 32.0592 183.353 31.213C182.946 29.902 182.731 28.4838 182.731 27.0179C182.731 25.8499 182.875 24.7058 183.126 23.6332C183.233 23.1922 183.699 22.942 184.13 23.0969L185.373 23.5617C185.731 23.6928 185.935 24.0742 185.839 24.4436C185.624 25.266 185.516 26.124 185.516 27.006C185.516 28.1263 185.696 29.1989 186.03 30.2119C186.317 31.0938 186.723 31.9281 187.225 32.6789C187.393 32.9173 187.704 33.0126 187.978 32.9173L190.381 32.0353L199.919 28.5195C200.553 28.2931 200.971 27.6853 200.971 27.0179C200.971 26.3505 200.553 25.7427 199.919 25.5162L190.381 22.0005L187.512 20.9517L184.668 19.9029L183.018 19.2951C182.241 19.0091 181.369 19.3308 180.998 20.034C180.962 20.0936 180.938 20.1532 180.914 20.2128C180.09 22.2746 179.636 24.5866 179.636 27.0298C179.636 29.473 180.09 31.7731 180.914 33.823C180.914 33.8468 180.926 33.8707 180.938 33.8945C180.95 33.9303 180.974 33.9779 180.998 34.0256C181.369 34.7407 182.241 35.0625 183.018 34.7764V34.7407ZM193.226 26.4458C193.584 26.5769 193.608 26.9106 193.608 27.006C193.608 27.1013 193.572 27.4231 193.226 27.5542L189.461 28.9486C189.138 29.0678 188.767 28.8771 188.708 28.5315C188.612 28.0428 188.552 27.5304 188.552 27.006C188.552 26.4816 188.6 25.9691 188.708 25.4805C188.779 25.1349 189.138 24.9442 189.461 25.0634L193.226 26.4578V26.4458Z" fill="white"/>
<path d="M230.41 19.2593L229.334 19.6526C229.036 19.7599 228.916 20.1174 229.06 20.3915C229.466 21.1423 229.813 21.9408 230.075 22.787C230.482 24.098 230.697 25.5162 230.697 26.9821C230.697 28.1501 230.554 29.2942 230.303 30.3668C230.195 30.8078 229.729 31.058 229.299 30.9031L228.056 30.4383C227.697 30.3072 227.494 29.9258 227.589 29.5564C227.805 28.734 227.912 27.876 227.912 26.994C227.912 25.8738 227.733 24.8011 227.398 23.7881C227.111 22.9062 226.705 22.0719 226.203 21.3211C226.036 21.0828 225.725 20.9874 225.45 21.0828L223.047 21.9647L213.509 25.4805C212.876 25.7069 212.457 26.3147 212.457 26.9821C212.457 27.6495 212.876 28.2573 213.509 28.4838L223.047 31.9996L225.916 33.0483L228.761 34.0971L230.41 34.7049C231.187 34.9909 232.06 34.6692 232.43 33.966C232.466 33.9064 232.49 33.8468 232.514 33.7872C233.339 31.7254 233.793 29.4134 233.793 26.9702C233.793 24.527 233.339 22.2269 232.514 20.177C232.514 20.1532 232.502 20.1293 232.49 20.1055C232.478 20.0697 232.454 20.0221 232.43 19.9744C232.06 19.2593 231.187 18.9375 230.41 19.2236V19.2593ZM220.203 27.5542C219.844 27.4231 219.82 27.0894 219.82 26.994C219.82 26.8987 219.856 26.5769 220.203 26.4458L223.968 25.0514C224.29 24.9322 224.661 25.1229 224.721 25.4685C224.816 25.9572 224.876 26.4696 224.876 26.994C224.876 27.5184 224.828 28.0309 224.721 28.5195C224.649 28.8651 224.29 29.0558 223.968 28.9367L220.203 27.5423V27.5542Z" fill="white"/>
<path d="M184.476 15.7674L185.516 16.2441C185.803 16.3752 186.138 16.2203 186.233 15.9104C186.472 15.1 186.807 14.2896 187.213 13.503C187.859 12.2993 188.708 11.1313 189.747 10.0945C190.584 9.26022 191.481 8.55706 192.425 7.985C192.807 7.74664 193.321 7.90158 193.512 8.3187L194.062 9.52241C194.218 9.86803 194.098 10.2852 193.764 10.4758C193.034 10.9049 192.341 11.4293 191.708 12.0609C190.919 12.8475 190.273 13.7413 189.795 14.6948C189.377 15.5171 189.078 16.399 188.887 17.281C188.827 17.567 188.982 17.853 189.257 17.9722L191.588 19.0329L200.827 23.2757C201.437 23.5617 202.166 23.4306 202.632 22.9539C203.098 22.4772 203.242 21.7502 202.955 21.1543L198.712 11.9417L197.433 9.17679L196.166 6.42376L195.425 4.82676C195.078 4.07593 194.242 3.68264 193.477 3.93292C193.417 3.95675 193.345 3.98059 193.297 4.00442C191.253 4.88635 189.293 6.19732 187.56 7.92541C185.827 9.65351 184.524 11.5961 183.64 13.6341C183.628 13.6579 183.616 13.6818 183.604 13.7056C183.592 13.7413 183.568 13.789 183.556 13.8367C183.305 14.6114 183.699 15.4456 184.452 15.7912L184.476 15.7674ZM197.576 17.1022C197.732 17.4478 197.529 17.6981 197.457 17.7696C197.385 17.8411 197.134 18.0437 196.788 17.8888L193.142 16.2203C192.819 16.0773 192.712 15.684 192.903 15.386C193.178 14.9689 193.512 14.5756 193.871 14.2061C194.23 13.8367 194.636 13.5149 195.054 13.2289C195.341 13.0382 195.736 13.1455 195.891 13.4672L197.564 17.1022H197.576Z" fill="white"/>
<path d="M228.964 38.2326L227.924 37.7559C227.637 37.6248 227.302 37.7797 227.207 38.0896C226.968 38.9 226.633 39.7104 226.227 40.497C225.581 41.7007 224.733 42.8687 223.693 43.9055C222.856 44.7398 221.96 45.4429 221.015 46.015C220.633 46.2534 220.119 46.0984 219.928 45.6813L219.378 44.4776C219.223 44.132 219.342 43.7148 219.677 43.5242C220.406 43.0951 221.099 42.5707 221.733 41.9391C222.521 41.1525 223.167 40.2587 223.645 39.3052C224.063 38.4829 224.362 37.601 224.553 36.719C224.613 36.433 224.458 36.147 224.183 36.0278L221.852 34.9671L212.613 30.7243C212.003 30.4383 211.274 30.5694 210.808 31.0461C210.342 31.5228 210.198 32.2498 210.485 32.8457L214.728 42.0583L216.007 44.8232L217.274 47.5762L218.015 49.1732C218.362 49.9241 219.199 50.3174 219.964 50.0671C220.023 50.0432 220.095 50.0194 220.143 49.9956C222.187 49.1137 224.147 47.8027 225.88 46.0746C227.601 44.3584 228.916 42.4039 229.801 40.3659C229.813 40.3421 229.824 40.3182 229.836 40.2944C229.848 40.2587 229.872 40.211 229.884 40.1633C230.135 39.3886 229.741 38.5544 228.988 38.2088L228.964 38.2326ZM215.864 36.8978C215.708 36.5522 215.912 36.3019 215.983 36.2304C216.055 36.1589 216.306 35.9563 216.653 36.1112L220.298 37.7797C220.621 37.9227 220.729 38.316 220.537 38.614C220.262 39.0311 219.928 39.4244 219.569 39.7939C219.211 40.1633 218.804 40.4851 218.386 40.7711C218.099 40.9618 217.705 40.8545 217.549 40.5328L215.876 36.8978H215.864Z" fill="white"/>
<path d="M217.979 4.81483L217.501 5.85168C217.37 6.13771 217.525 6.47141 217.836 6.56676C218.649 6.80512 219.462 7.13882 220.25 7.54403C221.458 8.18759 222.629 9.03376 223.669 10.0706C224.506 10.9049 225.211 11.7987 225.784 12.7402C226.024 13.1216 225.868 13.6341 225.45 13.8248L224.243 14.373C223.896 14.5279 223.478 14.4087 223.286 14.075C222.856 13.348 222.33 12.6568 221.697 12.0252C220.908 11.2386 220.011 10.595 219.055 10.1183C218.23 9.70116 217.346 9.40322 216.461 9.21253C216.175 9.15294 215.888 9.30787 215.768 9.58199L214.704 11.906L210.449 21.1185C210.162 21.7263 210.294 22.4533 210.772 22.9181C211.25 23.3829 211.979 23.5259 212.577 23.2399L221.816 19.009L224.589 17.7338L227.35 16.4705L228.952 15.7316C229.705 15.386 230.099 14.5517 229.848 13.789C229.824 13.7294 229.801 13.6579 229.777 13.6102C228.892 11.5723 227.577 9.61774 225.844 7.88964C224.123 6.17347 222.163 4.8625 220.119 3.98057C220.095 3.96866 220.071 3.95674 220.047 3.94482C220.011 3.9329 219.964 3.90907 219.916 3.89715C219.139 3.64687 218.302 4.04016 217.956 4.79099L217.979 4.81483ZM216.641 17.8768C216.294 18.0318 216.043 17.8292 215.971 17.7577C215.9 17.6862 215.697 17.4359 215.852 17.0903L217.525 13.4553C217.669 13.1335 218.063 13.0263 218.362 13.2169C218.78 13.4911 219.175 13.8248 219.545 14.1823C219.916 14.5398 220.238 14.945 220.525 15.3622C220.717 15.6482 220.609 16.0415 220.286 16.1964L216.641 17.8649V17.8768Z" fill="white"/>
<path d="M195.449 49.1852L195.927 48.1483C196.058 47.8623 195.903 47.5286 195.592 47.4333C194.779 47.1949 193.967 46.8612 193.178 46.456C191.971 45.8124 190.799 44.9662 189.759 43.9294C188.923 43.0951 188.218 42.2013 187.644 41.2598C187.405 40.8784 187.56 40.3659 187.978 40.1753L189.186 39.627C189.532 39.4721 189.951 39.5913 190.142 39.925C190.572 40.652 191.098 41.3432 191.732 41.9749C192.52 42.7614 193.417 43.405 194.373 43.8817C195.198 44.2988 196.082 44.5968 196.967 44.7875C197.254 44.8471 197.541 44.6921 197.66 44.418L198.724 42.094L202.979 32.8815C203.266 32.2737 203.134 31.5467 202.656 31.0819C202.178 30.6171 201.449 30.4741 200.851 30.7601L191.612 34.991L188.839 36.2662L186.078 37.5295L184.476 38.2684C183.723 38.614 183.329 39.4483 183.58 40.211C183.604 40.2706 183.628 40.3421 183.652 40.3898C184.536 42.4277 185.851 44.3823 187.584 46.1104C189.305 47.8265 191.265 49.1375 193.309 50.0194C193.333 50.0314 193.357 50.0433 193.381 50.0552C193.417 50.0671 193.465 50.0909 193.512 50.1029C194.289 50.3531 195.126 49.9598 195.473 49.209L195.449 49.1852ZM196.788 36.1232C197.134 35.9682 197.385 36.1708 197.457 36.2423C197.529 36.3139 197.732 36.5641 197.576 36.9097L195.903 40.5447C195.76 40.8665 195.365 40.9738 195.066 40.7831C194.648 40.509 194.254 40.1753 193.883 39.8177C193.513 39.4602 193.19 39.055 192.903 38.6378C192.712 38.3518 192.819 37.9585 193.142 37.8036L196.788 36.1351V36.1232Z" fill="white"/>
</g>
<defs>
<clipPath id="clip0_149_365">
<rect width="354" height="54" fill="white"/>
</clipPath>
</defs>
</svg>
