<svg width="284" height="69" viewBox="0 0 284 69" fill="none" xmlns="http://www.w3.org/2000/svg">
<path d="M89.1735 11.0978L82.9131 28.9969L76.6527 11.0978C76.6159 10.9698 76.4962 10.8876 76.3673 10.8876H67.8422C67.6488 10.8876 67.5015 11.0795 67.5568 11.2624L69.085 16.5553C69.1219 16.6833 69.2323 16.7656 69.3704 16.7656H70.42V43.3673C70.42 43.5318 70.5489 43.6598 70.7146 43.6598H76.0451C76.2108 43.6598 76.3397 43.5318 76.3397 43.3673V27.1229L81.1363 43.4496C81.1731 43.5776 81.2836 43.6598 81.4217 43.6598H84.4138C84.5518 43.6598 84.6623 43.5776 84.6992 43.4496L89.4957 27.2417V43.3673C89.4957 43.5318 89.6246 43.6598 89.7903 43.6598H95.1208C95.2865 43.6598 95.4154 43.5318 95.4154 43.3673V11.1801C95.4154 11.0156 95.2865 10.8876 95.1208 10.8876H89.4681C89.3392 10.8876 89.2195 10.9698 89.1827 11.0978H89.1735ZM162.429 30.2127H159.529V37.7727H162.429C164.528 37.7727 166.241 36.0815 166.241 33.9881C166.241 31.8947 164.528 30.2036 162.429 30.2036V30.2127ZM169.315 40.8351C167.474 42.6634 165.034 43.669 162.429 43.669H153.895C153.729 43.669 153.6 43.541 153.6 43.3764V30.2218H151.031C150.838 30.2218 150.691 30.039 150.746 29.847L152.265 24.5541C152.302 24.4261 152.422 24.3439 152.551 24.3439H153.6V11.1801C153.6 11.0156 153.729 10.8876 153.895 10.8876H159.225C159.391 10.8876 159.52 11.0247 159.52 11.1801V24.3347H162.42C165.016 24.3347 167.465 25.3403 169.306 27.1686C171.148 28.9969 172.16 31.4194 172.16 34.0064C172.16 36.5935 171.148 39.016 169.306 40.8442L169.315 40.8351ZM239.763 35.6793C239.763 36.8403 240.711 37.7819 241.881 37.7819H248.261V11.1801C248.261 11.0156 248.399 10.8876 248.555 10.8876H253.886C254.051 10.8876 254.18 11.0247 254.18 11.1801V37.7819H258.296C258.461 37.7819 258.59 37.9098 258.59 38.0744V42.4166V43.3673V47.7187C258.59 47.8832 258.461 48.0112 258.296 48.0112H252.965C252.799 48.0112 252.671 47.8832 252.671 47.7187V43.6598H241.89C237.452 43.6598 233.853 40.0855 233.853 35.6793V16.7747H232.803C232.674 16.7747 232.554 16.6833 232.518 16.5644L230.989 11.2715C230.934 11.0795 231.081 10.8967 231.275 10.8967H239.468C239.634 10.8967 239.763 11.0338 239.763 11.1892V35.6884V35.6793ZM278.071 24.3347H270.374V20.5867C270.374 18.4842 272.105 16.7656 274.223 16.7656C276.34 16.7656 278.071 18.4842 278.071 20.5867V24.3347ZM264.455 24.3347H259.98C259.787 24.3347 259.649 24.5267 259.704 24.7095L261.232 30.0024C261.269 30.1304 261.38 30.2127 261.509 30.2127H264.455V33.9607V43.3673C264.455 43.5318 264.584 43.6598 264.749 43.6598H270.08L270.374 43.3673V30.2127H278.071V43.3673L278.366 43.6598H283.696C283.862 43.6598 283.991 43.5318 283.991 43.3673V24.3347V20.5867C283.991 15.2481 279.59 10.8876 274.223 10.8876C268.846 10.8876 264.455 15.2572 264.455 20.5867V24.3347ZM133.162 30.9532V43.3673V43.3856C133.162 43.541 133.024 43.669 132.867 43.669H123.587C123.394 43.669 123.246 43.477 123.302 43.2942L124.83 38.0012C124.867 37.8733 124.986 37.791 125.115 37.791H127.242V30.9623V18.8772C127.242 14.471 130.842 10.8967 135.279 10.8967H145.526C145.692 10.8967 145.821 11.0247 145.821 11.1892V43.669H139.892V16.7656H135.27C134.101 16.7656 133.153 17.7071 133.153 18.8681V30.9532H133.162ZM192.175 11.1801V24.3347H183.429V11.1801C183.429 11.0156 183.3 10.8876 183.134 10.8876H177.804C177.638 10.8876 177.509 11.0247 177.509 11.1801V24.3347H174.941C174.738 24.3347 174.6 24.5175 174.655 24.7095L176.183 30.0024C176.22 30.1304 176.34 30.2127 176.469 30.2127H177.518V43.3673C177.518 43.5318 177.647 43.6598 177.813 43.6598H183.144C183.309 43.6598 183.438 43.5318 183.438 43.3673V30.2127H192.184V43.3673C192.184 43.5318 192.313 43.6598 192.479 43.6598H197.809C197.975 43.6598 198.104 43.5318 198.104 43.3673V11.1801C198.104 11.0156 197.975 10.8876 197.809 10.8876H192.479C192.313 10.8876 192.184 11.0247 192.184 11.1801H192.175ZM220.779 43.3673V25.2306L211.803 43.4587C211.766 43.5776 211.647 43.6598 211.518 43.6598H206.068V16.7747H205.018C204.889 16.7747 204.769 16.6833 204.733 16.5644L203.204 11.2715C203.149 11.0795 203.296 10.8967 203.49 10.8967H211.683C211.849 10.8967 211.978 11.0247 211.978 11.1892V29.3351L220.964 11.107C221 10.9881 221.12 10.9059 221.24 10.9059H226.395C226.552 10.9059 226.69 11.0338 226.69 11.1984V43.3764C226.69 43.541 226.561 43.669 226.395 43.669H221.065C220.899 43.669 220.77 43.5318 220.77 43.3764L220.779 43.3673ZM118.68 16.5553L120.199 11.2624C120.254 11.0704 120.116 10.8876 119.914 10.8876H103.674C103.508 10.8876 103.379 11.0247 103.379 11.1801V24.3347H100.81C100.617 24.3347 100.47 24.5175 100.525 24.7095L102.044 30.0024C102.081 30.1304 102.201 30.2127 102.329 30.2127H103.379V43.3673C103.379 43.5318 103.517 43.6598 103.674 43.6598H118.395C118.524 43.6598 118.643 43.5776 118.68 43.4496L120.199 38.1567C120.254 37.9647 120.116 37.7819 119.914 37.7819H109.299V30.2127H114.998C115.126 30.2127 115.246 30.1213 115.283 30.0024L116.811 24.7095C116.866 24.5175 116.719 24.3347 116.526 24.3347H109.299V16.7747H118.385C118.514 16.7747 118.634 16.6924 118.671 16.5644L118.68 16.5553Z" fill="white"/>
<path fill-rule="evenodd" clip-rule="evenodd" d="M56.5275 31.8398C56.1961 31.0354 55.7081 30.3132 55.1189 29.6916L54.9808 29.5362C54.3271 28.8871 53.5354 28.3569 52.6608 28.0004C52.0992 27.7719 51.5008 27.6165 50.8839 27.5342C52.1452 25.5962 52.8633 23.3017 52.8633 20.8792C52.8633 15.44 49.282 10.7961 44.3013 9.20548C42.5889 5.32035 38.6854 2.64189 34.1927 2.64189C33.1432 2.64189 32.1028 2.78816 31.1177 3.07154C30.7127 2.75159 30.28 2.45906 29.8288 2.2031C27.6101 0.758744 25.0323 0 22.3808 0C16.5163 0 11.4804 3.70231 9.58389 8.9221C4.09686 10.1562 0 15.0286 0 20.8517C0 24.5083 1.63874 27.909 4.38226 30.2035V51.4026C4.38226 58.8164 10.4769 64.8772 17.9525 64.8772H34.119C40.6372 64.8772 45.9217 60.3978 47.3211 54.401H49.9449C50.9024 54.401 51.823 54.2091 52.67 53.8617C53.5446 53.5052 54.3271 52.975 54.99 52.3259L55.1281 52.1888C55.7173 51.5489 56.2053 50.8267 56.5367 50.0223C56.8865 49.1904 57.0799 48.2762 57.0799 47.3255V34.5548C57.0799 33.6041 56.8865 32.69 56.5367 31.8581L56.5275 31.8398ZM52.2741 47.3072C52.2741 47.618 52.2097 47.9197 52.0992 48.194C51.9795 48.4773 51.8046 48.7333 51.5928 48.9436C51.3811 49.163 51.1233 49.3275 50.8379 49.4463C50.5617 49.556 50.2671 49.62 49.9541 49.62H47.6985V32.2146H49.9541C50.2671 32.2146 50.5709 32.2786 50.8471 32.3883C51.1325 32.5072 51.3903 32.6808 51.6113 32.8911C51.823 33.1013 51.9979 33.3573 52.1176 33.6407C52.2281 33.9149 52.2925 34.2075 52.2925 34.5274V47.2981L52.2741 47.3072ZM29.838 8.22729C29.2857 7.25829 28.4755 6.50869 27.4904 5.9602C26.0266 4.98206 24.2682 4.41528 22.3808 4.41528C17.4646 4.41528 13.4506 8.26385 13.2296 13.0906C12.9258 13.054 12.622 13.0357 12.309 13.0357C7.96356 13.0357 4.4375 16.5369 4.4375 20.8517C4.4375 23.9232 6.22355 26.5834 8.81976 27.8632V51.4026C8.81976 56.3847 12.9258 60.4618 17.9433 60.4618H34.1098C39.1549 60.4618 43.2334 56.4395 43.2334 51.2106V28.2472C46.2623 27.141 48.4166 24.2615 48.4166 20.8791C48.4166 16.6283 45.0102 13.1637 40.7569 13.0357C40.4715 9.68078 37.6451 7.05717 34.1927 7.05717C32.6184 7.05717 31.173 7.60566 30.0406 8.51981C29.9761 8.41926 29.9117 8.32784 29.838 8.22729Z" fill="white"/>
<path fill-rule="evenodd" clip-rule="evenodd" d="M12.2169 51.4026C12.2169 54.529 14.7119 57.0977 17.7592 57.0977H34.3123C37.507 57.0977 39.8546 54.4467 39.8546 51.2106V41.7583C38.0041 41.3378 36.1536 41.0087 34.3123 40.7527L34.3308 40.8441L34.8371 43.1935L35.3711 45.6617C35.6933 46.8501 33.1892 48.0934 32.2869 48.395C30.6666 48.9435 28.4478 49.2817 26.0173 49.2817C24.084 49.2817 22.2887 49.0715 20.8249 48.7058C19.2322 48.3127 17.9801 47.7186 17.3081 47.0147L18.597 45.808C19.0297 46.2651 19.9687 46.6856 21.2392 46.9964C22.1046 47.2066 23.1081 47.3712 24.1945 47.4534V43.742C24.1945 42.6724 25.0783 41.804 26.1462 41.804C27.2142 41.804 28.098 42.6816 28.098 43.742V47.426C29.3317 47.3163 30.5929 47.0969 31.6977 46.7221C32.158 46.5667 33.3273 46.1462 33.539 45.6709L31.6793 37.1236L26.892 30.8251L25.9529 30.8891C25.5754 30.8891 25.4926 30.8251 25.1335 30.8251C24.9402 31.1907 21.5338 35.5695 21.1748 36.054C19.4071 38.4034 20.1529 37.0779 19.3243 39.8843C19.2874 39.994 19.223 40.2408 19.1401 40.5516C16.8293 40.8167 14.5185 41.219 12.2077 41.7583V51.4026H12.2169Z" fill="white"/>
<path fill-rule="evenodd" clip-rule="evenodd" d="M32.2869 25.651L37.866 29.8744C38.1883 30.1212 38.3632 30.4503 38.3908 30.8526C38.4184 31.2548 38.2895 31.6022 38.0041 31.8855L33.5022 36.3832C33.2168 36.6665 32.8577 36.8037 32.4526 36.7762C32.0476 36.7488 31.7161 36.5751 31.4676 36.2552L27.1774 30.6789C26.8091 30.752 26.4408 30.7886 26.0634 30.8068C26.0358 30.8068 26.0173 30.8068 25.9897 30.8068C25.6123 30.7977 25.244 30.752 24.8758 30.6789L20.5856 36.2552C20.337 36.5751 20.0055 36.758 19.6005 36.7762C19.1954 36.7945 18.8363 36.6665 18.5509 36.3832L14.049 31.8855C13.7636 31.6022 13.6347 31.2456 13.6623 30.8526C13.6899 30.4503 13.8741 30.1212 14.1871 29.8744L19.7662 25.651C19.6925 25.2488 19.6557 24.8374 19.6557 24.4261C19.6557 24.0147 19.7017 23.6216 19.7754 23.2285L14.1687 18.9595C13.8464 18.7126 13.6715 18.3836 13.6439 17.9813C13.6163 17.5791 13.7544 17.2226 14.0398 16.9483L18.5693 12.4781C18.8547 12.1948 19.2138 12.0668 19.6097 12.0942C20.0055 12.1216 20.3462 12.3045 20.5948 12.6153L24.8758 18.1824C25.244 18.1093 25.6215 18.0636 25.9989 18.0545C26.0173 18.0545 26.0358 18.0545 26.0542 18.0545C26.4316 18.0545 26.8091 18.1002 27.1774 18.1824L31.4583 12.6153C31.7069 12.2953 32.0384 12.1216 32.4434 12.0942C32.8485 12.0668 33.1984 12.1948 33.4838 12.4781L38.0133 16.9483C38.2987 17.2317 38.4368 17.5882 38.4092 17.9813C38.3816 18.3744 38.2067 18.7126 37.8844 18.9595L32.2777 23.2285C32.3606 23.6216 32.3974 24.0239 32.3974 24.4261C32.3974 24.8283 32.3606 25.2488 32.2869 25.651ZM31.0533 24.4261C31.0533 23.8593 30.9428 23.2742 30.731 22.7166L37.0559 17.899L32.5263 13.4288L27.6929 19.7182C27.1313 19.5079 26.5697 19.4074 26.0266 19.3982C25.4834 19.4074 24.9218 19.5079 24.3602 19.7182L19.5268 13.4288L14.9973 17.899L21.3221 22.7166C21.1103 23.2742 20.9998 23.8593 20.9998 24.4261C20.9998 25.0568 21.1103 25.6419 21.3037 26.1721L15.0065 30.9439L19.5084 35.4416L24.351 29.1431C24.885 29.335 25.4466 29.4447 26.0174 29.463C26.5882 29.4447 27.1497 29.3442 27.6837 29.1431L32.5263 35.4416L37.0282 30.9439L30.731 26.1721C30.9244 25.6419 31.0349 25.0568 31.0349 24.4261H31.0533Z" fill="white"/>
<path fill-rule="evenodd" clip-rule="evenodd" d="M22.5926 24.4261C22.5926 23.3748 23.1634 22.223 24.0656 21.6379C27.1866 19.6177 30.5285 22.9269 29.166 25.7973C28.9634 26.2178 28.7793 26.5469 28.4755 26.8486C26.3672 28.942 22.5926 27.4885 22.5926 24.4261Z" fill="white"/>
<path d="M26.0358 26.4098C27.1391 26.4098 28.0336 25.5217 28.0336 24.4261C28.0336 23.3305 27.1391 22.4424 26.0358 22.4424C24.9324 22.4424 24.038 23.3305 24.038 24.4261C24.038 25.5217 24.9324 26.4098 26.0358 26.4098Z" fill="white"/>
<path d="M75.0048 65.0966C74.075 65.0966 73.2924 64.8772 72.6664 64.4476C72.0403 64.0179 71.5616 63.4237 71.2486 62.6741C70.9356 61.9245 70.7698 61.0835 70.7698 60.1511C70.7698 59.2186 70.9264 58.3593 71.2486 57.6189C71.5616 56.8693 72.0311 56.2842 72.648 55.8546C73.2648 55.4249 74.0197 55.2055 74.9219 55.2055C75.8242 55.2055 76.6067 55.4249 77.2696 55.8546C77.9324 56.2842 78.4388 56.8693 78.8071 57.6189C79.1753 58.3593 79.3502 59.2095 79.3502 60.1602C79.3502 61.1109 79.1753 61.9428 78.8163 62.6833C78.4572 63.4329 77.9509 64.0179 77.2972 64.4567C76.6435 64.8864 75.8794 65.1058 75.0048 65.1058V65.0966ZM70.4108 69V55.4615H72.2889V62.0434H72.5559V69H70.4108ZM74.6826 63.2226C75.235 63.2226 75.6953 63.0855 76.0543 62.8112C76.4134 62.537 76.6804 62.1713 76.8553 61.7051C77.0302 61.2389 77.1131 60.7178 77.1131 60.1511C77.1131 59.5843 77.021 59.0724 76.8461 58.597C76.6712 58.1308 76.395 57.7651 76.0267 57.4818C75.6585 57.2075 75.1889 57.0704 74.6181 57.0704C74.075 57.0704 73.633 57.1984 73.2924 57.4543C72.9518 57.7103 72.7032 58.0668 72.5375 58.533C72.3718 58.9992 72.2889 59.5295 72.2889 60.1419C72.2889 60.7544 72.3718 61.2846 72.5375 61.7508C72.7032 62.2171 72.9518 62.5736 73.3016 62.8295C73.6515 63.0855 74.1118 63.2135 74.6826 63.2135V63.2226ZM83.9627 65.0966C83.2722 65.0966 82.6922 64.9686 82.2134 64.7127C81.7347 64.4567 81.3757 64.1093 81.1363 63.6888C80.8969 63.2592 80.768 62.793 80.768 62.2719C80.768 61.824 80.8417 61.4126 80.9982 61.0469C81.1547 60.6813 81.3849 60.3705 81.7071 60.1054C82.0293 59.8494 82.4344 59.63 82.9407 59.4563C83.3274 59.3375 83.7693 59.2278 84.2849 59.1272C84.8004 59.0267 85.3528 58.9353 85.9605 58.853C86.5589 58.7707 87.1941 58.6793 87.8478 58.5787L87.0928 59.0084C87.0928 58.3593 86.9548 57.884 86.6509 57.5732C86.3471 57.2624 85.8408 57.1161 85.1319 57.1161C84.6992 57.1161 84.2849 57.2167 83.889 57.4086C83.4931 57.6097 83.2077 57.948 83.0512 58.4233L81.1087 57.82C81.348 57.0247 81.7899 56.3939 82.4528 55.9094C83.1157 55.4249 84.0087 55.1872 85.1319 55.1872C85.9789 55.1872 86.7246 55.3244 87.369 55.5986C88.0135 55.8729 88.4922 56.3116 88.8052 56.9333C88.9802 57.2624 89.0814 57.6006 89.1183 57.9388C89.1551 58.2862 89.1735 58.661 89.1735 59.0632V64.8132H87.3138V62.7838L87.6268 63.1129C87.1941 63.7894 86.697 64.283 86.1262 64.603C85.5462 64.9138 84.8373 65.0783 83.9811 65.0783L83.9627 65.0966ZM84.3862 63.4329C84.8649 63.4329 85.2792 63.3506 85.6198 63.1769C85.9605 63.0124 86.2366 62.8021 86.4392 62.5644C86.6417 62.3176 86.7798 62.0891 86.8443 61.8788C86.9548 61.6137 87.0192 61.3029 87.0376 60.9647C87.056 60.6173 87.056 60.343 87.056 60.1328L87.7097 60.3248C87.0652 60.4253 86.5221 60.5076 86.0617 60.5807C85.6014 60.6539 85.2055 60.727 84.8833 60.791C84.5519 60.855 84.2665 60.9372 84.0087 61.0104C83.7601 61.0926 83.5576 61.2023 83.3827 61.312C83.2077 61.4309 83.0788 61.5589 82.996 61.7143C82.9039 61.8605 82.8579 62.0434 82.8579 62.2445C82.8579 62.473 82.9131 62.6833 83.0328 62.857C83.1525 63.0306 83.3274 63.1769 83.5484 63.2775C83.7785 63.378 84.0547 63.4329 84.3862 63.4329ZM94.8447 65.0966C93.9424 65.0966 93.1139 64.9046 92.3681 64.5298C91.6224 64.155 91.0332 63.6431 90.6005 62.9849L92.2761 61.8788C92.6167 62.281 92.9942 62.5918 93.4177 62.8021C93.832 63.0215 94.3015 63.1312 94.8078 63.1312C95.3142 63.1312 95.7653 63.0124 96.0691 62.7838C96.3729 62.5553 96.5294 62.2445 96.5294 61.8514C96.5294 61.5132 96.4282 61.2663 96.2164 61.1292C96.0139 60.983 95.7377 60.9007 95.4063 60.8732C95.0748 60.8458 94.7158 60.8275 94.3291 60.8275H93.6202V59.1729H94.3199C94.8539 59.1729 95.305 59.1089 95.664 58.9901C96.0231 58.8713 96.2072 58.597 96.2072 58.1857C96.2072 57.8109 96.0691 57.5366 95.7837 57.3812C95.4983 57.2258 95.1761 57.1435 94.7986 57.1435C94.3383 57.1435 93.8872 57.2349 93.4361 57.4269C92.985 57.6189 92.5891 57.8474 92.2392 58.1217L91.0424 56.6956C91.5672 56.2294 92.1656 55.8637 92.8192 55.5986C93.4729 55.3335 94.1726 55.1964 94.9091 55.1964C95.5167 55.1964 96.0875 55.2969 96.6215 55.5072C97.1555 55.7174 97.579 56.0283 97.9104 56.4488C98.2326 56.8693 98.3983 57.3812 98.3983 57.9937C98.3983 58.4325 98.3063 58.8438 98.1129 59.2369C97.9196 59.6209 97.6158 59.9957 97.2015 60.343L97.1739 59.6666C97.4961 59.8037 97.7723 59.9865 98.0025 60.2242C98.2326 60.4619 98.3983 60.7361 98.5272 61.0561C98.6469 61.376 98.7022 61.7143 98.7022 62.0708C98.7022 62.729 98.5272 63.2775 98.1774 63.7254C97.8275 64.1733 97.358 64.5207 96.7688 64.7492C96.1796 64.9778 95.5443 65.0966 94.8447 65.0966ZM99.7609 64.8407V63.0855C100.111 63.1495 100.378 63.1403 100.562 63.0581C100.746 62.9758 100.893 62.8295 100.985 62.6101C101.077 62.3907 101.16 62.0982 101.234 61.7326C101.326 61.2206 101.409 60.6264 101.483 59.95C101.556 59.2826 101.621 58.5605 101.676 57.8017C101.731 57.0338 101.777 56.2568 101.832 55.4615H108.848V64.8315H106.73V57.4178H103.701C103.674 57.7926 103.637 58.2131 103.6 58.6793C103.563 59.1455 103.517 59.6209 103.471 60.0871C103.425 60.5624 103.37 61.0104 103.315 61.4309C103.259 61.8605 103.204 62.2171 103.14 62.5187C103.002 63.1952 102.817 63.7345 102.56 64.1276C102.311 64.5207 101.961 64.7767 101.51 64.8864C101.059 64.9961 100.479 64.9778 99.7517 64.8224L99.7609 64.8407ZM119.564 55.4706V64.8407H117.548V58.725L113.009 64.8407H111.315V55.4706H113.331V61.4309L117.888 55.4706H119.564ZM122.022 64.8407V55.4706H126.349C126.662 55.4706 126.947 55.4889 127.224 55.5255C127.491 55.562 127.73 55.6078 127.923 55.6535C128.384 55.7906 128.789 56.0465 129.139 56.4305C129.488 56.8144 129.663 57.3446 129.663 58.0211C129.663 58.4233 129.599 58.7433 129.47 59.0084C129.341 59.2644 129.166 59.4837 128.954 59.6574C128.853 59.7397 128.752 59.8037 128.641 59.8677C128.531 59.9317 128.43 59.9682 128.328 60.0048C128.559 60.0414 128.78 60.1054 128.982 60.2059C129.304 60.3613 129.581 60.5899 129.801 60.9007C130.022 61.2115 130.133 61.6411 130.133 62.1896C130.133 62.8204 129.976 63.3506 129.673 63.7802C129.36 64.2099 128.908 64.5116 128.319 64.6761C128.098 64.731 127.85 64.7767 127.574 64.8041C127.288 64.8315 127.003 64.8407 126.708 64.8407H122.022ZM124.176 63.2226H126.561C126.681 63.2226 126.819 63.2135 126.966 63.1861C127.113 63.1586 127.242 63.1312 127.362 63.0946C127.574 63.0215 127.73 62.8844 127.822 62.6924C127.923 62.5004 127.969 62.2993 127.969 62.0891C127.969 61.8057 127.896 61.5771 127.758 61.4035C127.61 61.2298 127.445 61.1201 127.242 61.0652C127.122 61.0195 127.003 60.9921 126.855 60.9829C126.717 60.9829 126.607 60.9738 126.515 60.9738H124.176V63.2226ZM124.176 59.3375H125.944C126.128 59.3375 126.303 59.3375 126.478 59.3101C126.653 59.2918 126.791 59.2552 126.911 59.2004C127.104 59.1272 127.251 58.9992 127.343 58.8164C127.435 58.6336 127.481 58.4416 127.481 58.2131C127.481 57.9845 127.435 57.7743 127.325 57.5823C127.224 57.3903 127.058 57.2715 126.837 57.2075C126.69 57.1527 126.515 57.1161 126.303 57.1161C126.091 57.1161 125.962 57.1161 125.898 57.1161H124.176V59.3466V59.3375ZM131.891 64.8407V55.4706H134V59.1638H138.299V55.4615H140.407V64.8315H138.299V61.1201H134V64.8407H131.891ZM142.875 64.8407V55.4706H144.992V58.597H146.06C146.327 58.597 146.622 58.597 146.953 58.6153C147.284 58.6244 147.561 58.6519 147.782 58.6976C148.316 58.8164 148.776 58.9992 149.153 59.2552C149.531 59.5112 149.816 59.8403 150.019 60.2516C150.221 60.663 150.323 61.1566 150.323 61.7326C150.323 62.5644 150.102 63.2226 149.669 63.7163C149.236 64.2099 148.629 64.5481 147.846 64.731C147.616 64.7858 147.331 64.8132 146.99 64.8315C146.649 64.8498 146.345 64.8589 146.078 64.8589H142.865L142.875 64.8407ZM144.992 63.2043H146.272C146.401 63.2043 146.548 63.2043 146.704 63.1861C146.861 63.1769 147.018 63.1495 147.156 63.1038C147.423 63.0306 147.653 62.8752 147.864 62.6284C148.067 62.3816 148.178 62.0799 148.178 61.7234C148.178 61.3486 148.076 61.0378 147.864 60.791C147.662 60.5442 147.404 60.3888 147.11 60.3156C146.971 60.2791 146.824 60.2608 146.686 60.2425C146.539 60.2333 146.41 60.2242 146.281 60.2242H145.001V63.1952L144.992 63.2043ZM151.326 64.8407V55.4706H153.453V64.8407H151.326ZM160.247 65.0966C159.28 65.0966 158.433 64.8955 157.706 64.4841C156.979 64.0728 156.408 63.506 156.003 62.7747C155.598 62.0434 155.386 61.2023 155.386 60.2608C155.386 59.2369 155.589 58.3502 155.985 57.5915C156.38 56.8327 156.942 56.2477 157.651 55.8363C158.36 55.4158 159.188 55.2147 160.118 55.2147C161.103 55.2147 161.95 55.4432 162.641 55.8911C163.331 56.3482 163.847 56.9881 164.178 57.8109C164.51 58.6427 164.639 59.6117 164.556 60.7361H162.447V59.9682C162.447 58.9535 162.263 58.2039 161.904 57.7377C161.545 57.2715 160.984 57.0338 160.21 57.0338C159.336 57.0338 158.691 57.2989 158.268 57.8291C157.844 58.3593 157.633 59.1364 157.633 60.1511C157.633 61.1018 157.844 61.8331 158.268 62.3542C158.691 62.8752 159.308 63.1312 160.118 63.1312C160.643 63.1312 161.094 63.0124 161.472 62.7838C161.849 62.5553 162.144 62.2262 162.346 61.7874L164.445 62.409C164.077 63.25 163.515 63.9082 162.76 64.3836C161.996 64.8498 161.159 65.0875 160.238 65.0875L160.247 65.0966ZM156.97 60.727V59.1455H163.525V60.727H156.97ZM170.061 64.8315V55.4615H172.169V59.1546H176.469V55.4523H178.577V64.8224H176.469V61.1109H172.169V64.8315H170.061ZM183.714 65.0875C183.024 65.0875 182.444 64.9595 181.965 64.7035C181.486 64.4476 181.127 64.1002 180.888 63.6797C180.649 63.25 180.52 62.7838 180.52 62.2628C180.52 61.8148 180.593 61.4035 180.75 61.0378C180.906 60.6721 181.137 60.3613 181.459 60.0962C181.781 59.8403 182.186 59.6209 182.692 59.4472C183.079 59.3283 183.521 59.2186 184.037 59.1181C184.552 59.0175 185.105 58.9261 185.712 58.8438C186.311 58.7616 186.946 58.6702 187.599 58.5696L186.845 58.9992C186.845 58.3502 186.706 57.8748 186.403 57.564C186.099 57.2532 185.592 57.107 184.884 57.107C184.451 57.107 184.037 57.2075 183.641 57.3995C183.245 57.6006 182.959 57.9388 182.803 58.4142L180.86 57.8109C181.1 57.0155 181.542 56.3848 182.204 55.9003C182.867 55.4158 183.76 55.1781 184.884 55.1781C185.731 55.1781 186.476 55.3152 187.121 55.5895C187.765 55.8637 188.244 56.3025 188.557 56.9241C188.732 57.2532 188.833 57.5915 188.87 57.9297C188.907 58.2771 188.925 58.6519 188.925 59.0541V64.8041H187.065V62.7747L187.378 63.1038C186.946 63.7802 186.449 64.2739 185.878 64.5938C185.298 64.9047 184.589 65.0692 183.733 65.0692L183.714 65.0875ZM184.138 63.4237C184.617 63.4237 185.031 63.3415 185.372 63.1678C185.712 63.0032 185.988 62.793 186.191 62.5553C186.393 62.3085 186.532 62.0799 186.596 61.8697C186.706 61.6046 186.771 61.2938 186.789 60.9555C186.808 60.6081 186.808 60.3339 186.808 60.1236L187.461 60.3156C186.817 60.4162 186.274 60.4985 185.813 60.5716C185.353 60.6447 184.957 60.7178 184.635 60.7818C184.304 60.8458 184.018 60.9281 183.76 61.0012C183.512 61.0835 183.309 61.1932 183.134 61.3029C182.959 61.4217 182.831 61.5497 182.748 61.7051C182.656 61.8514 182.61 62.0342 182.61 62.2353C182.61 62.4639 182.665 62.6741 182.784 62.8478C182.904 63.0215 183.079 63.1678 183.3 63.2683C183.53 63.3689 183.806 63.4237 184.138 63.4237ZM191.199 64.8315V55.4615H199.457V64.8315H197.349V57.4178H193.307V64.8407H191.199V64.8315ZM210.183 55.4615V64.8315H208.167V58.7159L203.628 64.8315H201.934V55.4615H203.95V61.4217L208.507 55.4615H210.183ZM215.062 64.8315V57.3172H211.868V55.4706H220.365V57.3264H217.171V64.8407H215.053L215.062 64.8315ZM222.022 64.8315L222.041 55.4615H224.195V59.9774L227.675 55.4615H230.326L226.635 60.1511L230.649 64.8407H227.832L224.186 60.3248V64.8407H222.013L222.022 64.8315ZM239.772 55.4615V64.8315H237.756V58.7159L233.217 64.8315H231.523V55.4615H233.54V61.4217L238.097 55.4615H239.772Z" fill="white"/>
</svg>
