<svg width="25" height="22" viewBox="0 0 25 22" fill="none" xmlns="http://www.w3.org/2000/svg">
<path d="M11.6011 4.48762H24.6498M11.6011 17.2985H24.6498M2.6301 1.28491H5.89228C6.7931 1.28491 7.52337 2.00186 7.52337 2.88627V6.08898C7.52337 6.97338 6.7931 7.69034 5.89228 7.69034H2.6301C1.72927 7.69034 0.999008 6.97338 0.999008 6.08898V2.88627C0.999008 2.00186 1.72927 1.28491 2.6301 1.28491ZM2.6301 14.0958H5.89228C6.7931 14.0958 7.52337 14.8127 7.52337 15.6971V18.8998C7.52337 19.7842 6.7931 20.5012 5.89228 20.5012H2.6301C1.72927 20.5012 0.999008 19.7842 0.999008 18.8998V15.6971C0.999008 14.8127 1.72927 14.0958 2.6301 14.0958Z" stroke="white" stroke-width="2"/>
</svg>
